<svg width="1619" height="1619" viewBox="0 0 1619 1619" fill="none" xmlns="http://www.w3.org/2000/svg">
<g opacity="0.3">
<path opacity="0.7" d="M219.957 541.037C219.957 541.037 129.682 774.173 256.547 1008.93C383.411 1243.68 644.718 1367.7 853.861 1473.74C1063 1579.79 1280.18 1528.14 1383.37 1354.46C1486.57 1180.77 1345.03 1056.79 1344.84 809.111C1344.64 561.437 1381.91 495.867 1247.7 286.628C1113.48 77.3881 784.47 31.0523 535.662 186.25C286.854 341.447 219.957 541.037 219.957 541.037Z" fill="white"/>
<path d="M628.172 79.0395C518.08 97.1399 412.942 137.032 323.509 205.969C193.406 306.347 121.263 456.169 113.719 619.203C108.764 726.834 134.442 831.777 165.527 933.969C205.419 1065.3 231.193 1215.19 314.572 1327.58C444.415 1502.43 695.328 1576.19 905.183 1544.91C1040.76 1524.68 1184.01 1447.77 1225.74 1308.54C1241.19 1257.02 1248.7 1201.69 1275.09 1154.06C1306.73 1097 1364.07 1063.68 1407.62 1017.22C1461.44 959.84 1483.1 888.345 1496.51 812.738C1525.84 647.211 1485.79 471.874 1389.07 334.55C1288.14 191.301 1138.42 114.366 968.421 84.1879C949.77 80.9499 931.022 78.0681 912.209 75.7044C818.825 63.9504 721.75 63.5619 628.172 79.0395Z" fill="#407BFF"/>
<path opacity="0.7" d="M628.172 79.0395C518.08 97.1399 412.942 137.032 323.509 205.969C193.406 306.347 121.263 456.169 113.719 619.203C108.764 726.834 134.442 831.777 165.527 933.969C205.419 1065.3 231.193 1215.19 314.572 1327.58C444.415 1502.43 695.328 1576.19 905.183 1544.91C1040.76 1524.68 1184.01 1447.77 1225.74 1308.54C1241.19 1257.02 1248.7 1201.69 1275.09 1154.06C1306.73 1097 1364.07 1063.68 1407.62 1017.22C1461.44 959.84 1483.1 888.345 1496.51 812.738C1525.84 647.211 1485.79 471.874 1389.07 334.55C1288.14 191.301 1138.42 114.366 968.421 84.1879C949.77 80.9499 931.022 78.0681 912.209 75.7044C818.825 63.9504 721.75 63.5619 628.172 79.0395Z" fill="white"/>
</g>
<path opacity="0.2" d="M651.745 1239.05L922.83 1188.51C922.83 1188.51 984.158 1382.01 996.527 1407.04L990.051 1422.23L994.131 1447.64L724.729 1508.91L703.132 1491.88L651.745 1239.05Z" fill="black" fill-opacity="0.7"/>
<path d="M903.136 1167.77L641.076 1229.81L703.121 1491.87L965.181 1429.83L903.136 1167.77Z" fill="#407BFF"/>
<mask id="mask0_101_6" style="mask-type:luminance" maskUnits="userSpaceOnUse" x="641" y="1167" width="325" height="325">
<path d="M903.136 1167.77L641.076 1229.81L703.121 1491.87L965.181 1429.83L903.136 1167.77Z" fill="white"/>
</mask>
<g mask="url(#mask0_101_6)">
<path opacity="0.2" d="M919.883 1238.47L963.37 1422.1L713.461 1481.26C683.348 1405.91 660.325 1311.03 660.325 1311.03L919.883 1238.47Z" fill="black" fill-opacity="0.7"/>
</g>
<path d="M903.136 1167.77L641.076 1229.81L703.121 1491.87L965.181 1429.83L903.136 1167.77Z" stroke="#263238" stroke-linecap="round" stroke-linejoin="round"/>
<path d="M973.375 1413.13C907.87 1428.64 815.102 1443.21 759.149 1451.43C730.007 1455.71 710.579 1458.23 710.579 1458.23C685.776 1412.9 641.027 1229.82 641.027 1229.82L903.078 1167.78C903.596 1170.02 904.05 1172.25 904.535 1174.45C935.782 1316.05 973.375 1413.13 973.375 1413.13Z" fill="white"/>
<mask id="mask1_101_6" style="mask-type:luminance" maskUnits="userSpaceOnUse" x="641" y="1167" width="333" height="292">
<path d="M973.375 1413.13C907.87 1428.64 815.102 1443.21 759.149 1451.43C730.007 1455.71 710.579 1458.23 710.579 1458.23C685.776 1412.9 641.027 1229.82 641.027 1229.82L903.078 1167.78C903.596 1170.02 904.05 1172.25 904.535 1174.45C935.782 1316.05 973.375 1413.13 973.375 1413.13Z" fill="white"/>
</mask>
<g mask="url(#mask1_101_6)">
<path opacity="0.4" d="M973.375 1413.13C907.87 1428.64 815.102 1443.21 759.149 1451.43C717.055 1423.49 706.985 1396.1 707.503 1369.97C708.053 1338.95 843.208 1369.25 871.443 1338.52C891.583 1316.6 890.871 1223.58 904.6 1174.46C935.782 1316.05 973.375 1413.13 973.375 1413.13Z" fill="#407BFF"/>
</g>
<path d="M973.375 1413.13C907.87 1428.64 815.102 1443.21 759.149 1451.43C730.007 1455.71 710.579 1458.23 710.579 1458.23C685.776 1412.9 641.027 1229.82 641.027 1229.82L903.078 1167.78C903.596 1170.02 904.05 1172.25 904.535 1174.45C935.782 1316.05 973.375 1413.13 973.375 1413.13Z" stroke="#263238" stroke-linecap="round" stroke-linejoin="round"/>
<path d="M685.323 1269.46C688.878 1265.31 693.143 1261.84 697.918 1259.19L701.804 1269.17L715.371 1264.24C719.904 1262.59 725.085 1260.46 726.672 1255.96C729.165 1261.88 737.778 1260.88 743.898 1258.93C786.27 1245.29 829.551 1234.66 873.418 1227.1" stroke="#263238" stroke-linecap="round" stroke-linejoin="round"/>
<path d="M691.896 1305.72C689.079 1304.27 691.41 1299.25 694.583 1299.44C697.757 1299.64 699.797 1303.13 700.056 1306.31C701.459 1306.15 702.778 1305.56 703.825 1304.61C704.872 1303.66 705.592 1302.41 705.884 1301.03L710.385 1304.27C710.01 1303.71 709.754 1303.08 709.631 1302.42C709.509 1301.76 709.524 1301.08 709.674 1300.42C709.824 1299.77 710.107 1299.15 710.505 1298.61C710.904 1298.07 711.409 1297.61 711.989 1297.27C712.57 1296.93 713.214 1296.72 713.881 1296.64C714.549 1296.56 715.225 1296.61 715.87 1296.8C716.515 1297 717.113 1297.32 717.629 1297.75C718.145 1298.18 718.566 1298.71 718.868 1299.31C718.545 1295.62 719.969 1290.31 723.564 1291.15C724.684 1291.61 725.706 1292.28 726.575 1293.13C727.672 1293.8 728.911 1294.2 730.192 1294.29C731.473 1294.39 732.759 1294.19 733.946 1293.7C735.132 1293.2 736.186 1292.44 737.021 1291.46C737.855 1290.48 738.448 1289.33 738.75 1288.08C742.279 1292.09 748.464 1291.54 753.871 1290.63L801.017 1282.6C801.47 1279.63 802.959 1275.8 805.938 1276.13C807.654 1276.39 808.788 1278.04 810.277 1278.95C812.573 1279.91 815.14 1280 817.498 1279.2C838.735 1274.6 859.577 1268.33 879.829 1260.46" stroke="#263238" stroke-linecap="round" stroke-linejoin="round"/>
<path d="M708.151 1347.01C714.449 1347.56 720.79 1346.69 726.704 1344.45C725.658 1342.24 725.393 1339.74 725.952 1337.36C726.51 1334.97 727.86 1332.85 729.78 1331.34L735.479 1335C758.428 1334.45 781.24 1331.3 803.477 1325.61C813.418 1323.08 823.262 1320 833.073 1316.93L888.961 1299.51" stroke="#263238" stroke-linecap="round" stroke-linejoin="round"/>
<path opacity="0.2" d="M1141.2 199.169L1135.99 199.493C1133.59 199.772 1131.16 199.18 1129.16 197.825C1127.16 196.471 1125.71 194.443 1125.08 192.111C1117.11 163.131 1087.97 146.843 1054.33 148.948C1023.95 150.826 991.929 169.995 973.375 196.482C971.095 199.954 968.075 202.878 964.531 205.045C960.988 207.211 957.008 208.567 952.879 209.013L926.975 210.632C923.438 210.959 919.889 210.141 916.852 208.299C913.815 206.457 911.449 203.688 910.105 200.4C899.646 175.694 873.127 160.184 842.722 162.062C809.014 164.134 774.173 184.372 756.85 214.939C755.481 217.399 753.539 219.492 751.188 221.042C748.838 222.592 746.148 223.553 743.348 223.843L738.135 224.167C736.911 224.301 735.765 224.828 734.866 225.669C733.967 226.509 733.364 227.618 733.148 228.83L731.108 241.782C730.983 242.216 730.95 242.672 731.012 243.119C731.074 243.567 731.229 243.997 731.467 244.381C731.705 244.766 732.02 245.096 732.393 245.351C732.767 245.606 733.189 245.78 733.634 245.861L739.915 247.772C742.351 248.497 744.459 250.047 745.877 252.156C747.295 254.265 747.935 256.802 747.687 259.331C745.485 300.81 774.756 331.28 816.429 328.722C856.613 326.229 894.854 293.784 907.352 253.795C908.408 250.557 910.251 247.632 912.715 245.281C915.178 242.931 918.187 241.227 921.47 240.324C930.379 237.977 939.648 237.318 948.799 238.382C951.714 238.721 954.395 240.146 956.309 242.371C958.223 244.597 959.229 247.461 959.128 250.395C959.128 289.736 987.72 318.101 1027.97 315.608C1069.71 313.082 1109.27 278.468 1120.35 236.374C1121.15 233.46 1122.61 230.772 1124.63 228.524C1126.65 226.275 1129.16 224.528 1131.97 223.422L1139 220.735C1139.98 220.4 1140.86 219.809 1141.53 219.024C1142.21 218.238 1142.67 217.286 1142.85 216.266L1144.92 203.314C1145.09 202.778 1145.12 202.207 1145 201.657C1144.88 201.108 1144.62 200.599 1144.24 200.181C1143.87 199.762 1143.39 199.449 1142.86 199.272C1142.32 199.095 1141.75 199.059 1141.2 199.169ZM818.21 317.777C779.354 320.174 753.094 289.672 759.376 249.779C765.658 209.887 802.312 175.305 841.071 173.071C879.829 170.837 906.187 201.177 899.873 241.069C893.559 280.961 856.969 315.381 818.21 317.777ZM911.432 232.65C911.583 230.492 911.648 228.257 911.627 225.948C911.667 225.025 912.034 224.146 912.663 223.47C913.292 222.794 914.141 222.363 915.059 222.256L961.427 219.407C961.83 219.369 962.235 219.436 962.604 219.602C962.973 219.768 963.292 220.027 963.53 220.353C963.769 220.68 963.918 221.063 963.964 221.465C964.009 221.866 963.95 222.273 963.791 222.645C963.078 224.879 962.431 227.113 961.848 229.38C941.902 223.584 921.988 228.797 911.432 232.65ZM1029.68 304.663C990.828 307.06 964.568 276.558 970.882 236.665C977.196 196.773 1013.79 162.192 1052.54 159.957C1091.3 157.723 1117.66 188.063 1111.38 227.955C1105.1 267.847 1068.54 302.267 1029.68 304.663Z" fill="black" fill-opacity="0.7"/>
<path d="M1107.95 207.232L810.828 246.671C803.812 247.603 797.069 249.994 791.035 253.692C785 257.39 779.808 262.311 775.792 268.139L732.306 331.409C731.908 331.998 731.647 332.668 731.543 333.371C731.439 334.074 731.495 334.791 731.707 335.469C731.918 336.148 732.28 336.769 732.765 337.289C733.25 337.808 733.846 338.211 734.508 338.468C737.421 339.588 740.626 339.693 743.606 338.764C746.585 337.836 749.164 335.929 750.925 333.352L791.141 275.068C793.533 271.579 796.625 268.626 800.221 266.396C803.816 264.166 807.837 262.709 812.026 262.116L1109.01 220.022L1107.95 207.232Z" fill="#263238"/>
<path d="M707.115 232.229L1006.76 227.275C1013.85 227.176 1020.87 228.565 1027.39 231.354C1033.9 234.143 1039.76 238.269 1044.58 243.465L1096.97 299.612C1097.45 300.132 1097.81 300.755 1098.02 301.433C1098.23 302.112 1098.28 302.829 1098.17 303.53C1098.06 304.231 1097.79 304.898 1097.39 305.482C1096.99 306.065 1096.45 306.549 1095.84 306.898C1093.13 308.443 1089.97 309.028 1086.89 308.558C1083.8 308.088 1080.96 306.59 1078.84 304.307L1030.43 252.499C1027.53 249.395 1024.02 246.928 1020.12 245.255C1016.22 243.583 1012.01 242.742 1007.76 242.785L707.794 245.052L707.115 232.229Z" fill="#263238"/>
<path d="M888.734 251.301C892.425 251.981 892.263 277.205 883.909 285.721C875.555 294.237 867.007 273.514 869.176 266.066C871.346 258.619 877.174 249.099 888.734 251.301Z" fill="#407BFF" stroke="#263238" stroke-linecap="round" stroke-linejoin="round"/>
<path d="M940.801 248.063C937.239 249.229 940.509 273.967 949.835 281.641C959.16 289.315 965.118 267.427 962.042 260.335C958.966 253.244 951.972 244.469 940.801 248.063Z" fill="#407BFF" stroke="#263238" stroke-linecap="round" stroke-linejoin="round"/>
<path opacity="0.5" d="M755.166 192.273C770.838 178.867 804.028 156.039 840.358 177.766C876.689 199.493 889.22 223.098 881.772 255.057C874.325 287.016 851.432 329.758 797.584 322.311C743.736 314.863 706.499 233.913 755.166 192.273Z" fill="#407BFF"/>
<path opacity="0.5" d="M967.029 181.943C982.701 168.538 1015.86 145.678 1052.19 167.405C1088.52 189.132 1101.08 212.737 1093.6 244.696C1086.12 276.655 1063.29 319.396 1009.41 311.949C955.534 304.502 918.329 223.422 967.029 181.943Z" fill="#407BFF"/>
<path d="M1114.13 202.699L1108.92 203.023C1106.34 203.193 1103.76 202.607 1101.5 201.336C1099.25 200.065 1097.42 198.164 1096.22 195.867C1081.78 167.761 1048.72 152.024 1015.02 154.096C1000.13 155.067 985.737 159.832 973.211 167.937C960.685 176.042 950.442 187.217 943.456 200.4C941.779 203.827 939.236 206.757 936.078 208.898C932.92 211.039 929.257 212.318 925.453 212.607L899.549 214.194C895.729 214.395 891.924 213.588 888.514 211.855C885.104 210.121 882.21 207.522 880.121 204.318C871.559 192.098 860.012 182.273 846.579 175.778C833.147 169.282 818.275 166.333 803.38 167.21C769.673 169.315 738.814 189.002 727.967 218.695C727.065 221.119 725.476 223.228 723.394 224.763C721.312 226.299 718.828 227.194 716.246 227.34L711.032 227.664C709.895 227.739 708.834 228.261 708.082 229.117C707.329 229.973 706.946 231.092 707.017 232.229L707.794 244.89C707.86 245.837 708.235 246.736 708.861 247.449C709.487 248.163 710.329 248.651 711.259 248.84L718.059 250.654C720.696 251.321 723.087 252.732 724.946 254.718C726.806 256.704 728.057 259.182 728.55 261.857C731.638 281.383 741.765 299.105 757.02 311.678C772.275 324.252 791.604 330.808 811.36 330.111C831.117 329.414 849.936 321.512 864.267 307.894C878.598 294.277 887.45 275.886 889.155 256.191C889.51 253.133 890.787 250.256 892.817 247.942C894.848 245.628 897.534 243.988 900.52 243.239C909.407 240.892 918.655 240.233 927.784 241.296C930.872 241.692 933.765 243.02 936.079 245.103C938.393 247.185 940.018 249.924 940.736 252.953C944.764 272.385 955.79 289.661 971.72 301.498C987.649 313.335 1007.37 318.907 1027.14 317.157C1046.91 315.407 1065.35 306.456 1078.95 292.004C1092.55 277.553 1100.37 258.608 1100.92 238.77C1101.07 236.064 1101.99 233.457 1103.57 231.259C1105.15 229.06 1107.34 227.363 1109.86 226.369L1116.33 223.713C1117.23 223.411 1118 222.823 1118.54 222.04C1119.07 221.256 1119.33 220.32 1119.28 219.375L1118.47 206.714C1118.41 205.612 1117.93 204.576 1117.12 203.826C1116.3 203.076 1115.23 202.672 1114.13 202.699ZM812.738 318.393C798.835 319.258 784.989 315.98 772.95 308.972C760.912 301.965 751.223 291.543 745.11 279.027C738.997 266.511 736.735 252.462 738.61 238.659C740.485 224.857 746.413 211.921 755.643 201.488C764.873 191.056 776.991 183.597 790.462 180.055C803.934 176.512 818.153 177.046 831.321 181.589C844.489 186.132 856.013 194.479 864.435 205.575C872.856 216.67 877.797 230.014 878.631 243.919C879.722 262.521 873.402 280.798 861.054 294.754C848.706 308.71 831.335 317.209 812.738 318.393ZM888.507 235.629C888.151 233.427 887.73 231.258 887.212 229.153C887.111 228.737 887.104 228.303 887.19 227.883C887.277 227.463 887.454 227.068 887.711 226.725C887.968 226.381 888.297 226.099 888.675 225.897C889.053 225.696 889.471 225.581 889.899 225.559L936.268 222.677C936.705 222.625 937.149 222.673 937.566 222.818C937.982 222.962 938.361 223.199 938.673 223.51C938.984 223.822 939.221 224.201 939.366 224.617C939.51 225.034 939.558 225.478 939.506 225.915C939.279 228.052 939.117 230.254 939.02 232.391C922.285 228.222 904.668 229.354 888.604 235.629H888.507ZM1024.31 305.279C1010.41 306.144 996.56 302.866 984.521 295.858C972.483 288.851 962.794 278.429 956.681 265.913C950.568 253.397 948.306 239.348 950.181 225.545C952.056 211.743 957.984 198.807 967.214 188.374C976.444 177.942 988.562 170.483 1002.03 166.941C1015.5 163.398 1029.72 163.933 1042.89 168.475C1056.06 173.018 1067.58 181.365 1076.01 192.461C1084.43 203.556 1089.37 216.9 1090.2 230.805C1091.3 249.393 1085 267.662 1072.67 281.617C1060.34 295.572 1042.99 304.079 1024.41 305.279H1024.31Z" fill="#757575" stroke="#263238" stroke-linecap="round" stroke-linejoin="round"/>
<path opacity="0.4" d="M760.93 293.492C760.93 293.492 735.026 259.202 753.288 219.375C769.77 183.562 808.334 179.482 826.629 186.995L786.834 256.676C790.495 239.656 795.977 223.079 803.186 207.232C803.186 207.232 768.021 242.85 760.93 293.492Z" fill="white"/>
<path opacity="0.4" d="M971.983 278.468C971.983 278.468 946.079 244.21 964.341 204.383C980.823 168.538 1019.39 164.458 1037.65 172.003L997.725 241.555C1000.74 216.59 1014.24 192.175 1014.24 192.175C1014.24 192.175 979.042 227.761 971.983 278.468Z" fill="white"/>
<path opacity="0.2" d="M212.413 883.456L221.803 925.647L232.521 877.887L204.35 400.832H185.149L212.413 883.456Z" fill="black" fill-opacity="0.7"/>
<path d="M195.251 395.036L221.803 874.908L212.089 914.379L198.036 876.235L171.42 396.331C171.358 395.532 171.457 394.729 171.709 393.968C171.962 393.208 172.364 392.506 172.892 391.902C173.42 391.299 174.063 390.808 174.783 390.456C175.503 390.105 176.286 389.9 177.086 389.855L188.905 389.208C189.706 389.164 190.509 389.281 191.264 389.552C192.02 389.823 192.714 390.243 193.305 390.786C193.897 391.329 194.373 391.984 194.708 392.714C195.042 393.444 195.227 394.234 195.251 395.036Z" fill="#407BFF"/>
<mask id="mask2_101_6" style="mask-type:luminance" maskUnits="userSpaceOnUse" x="171" y="389" width="51" height="526">
<path d="M195.251 395.036L221.803 874.908L212.089 914.379L198.036 876.235L171.42 396.331C171.358 395.532 171.457 394.729 171.709 393.968C171.962 393.208 172.364 392.506 172.892 391.902C173.42 391.299 174.063 390.808 174.783 390.456C175.503 390.105 176.286 389.9 177.086 389.855L188.905 389.208C189.706 389.164 190.509 389.281 191.264 389.552C192.02 389.823 192.714 390.243 193.305 390.786C193.897 391.329 194.373 391.984 194.708 392.714C195.042 393.444 195.227 394.234 195.251 395.036Z" fill="white"/>
</mask>
<g mask="url(#mask2_101_6)">
<path opacity="0.2" d="M212.024 914.379L197.971 876.235L171.42 396.331C171.358 395.532 171.457 394.729 171.709 393.968C171.962 393.208 172.364 392.506 172.892 391.902C173.42 391.299 174.063 390.808 174.783 390.456C175.503 390.105 176.286 389.9 177.086 389.855H178.738L205.483 873.256L212.024 914.379Z" fill="black" fill-opacity="0.7"/>
</g>
<path d="M195.251 395.036L221.803 874.908L212.089 914.379L198.036 876.235L171.42 396.331C171.358 395.532 171.457 394.729 171.709 393.968C171.962 393.208 172.364 392.506 172.892 391.902C173.42 391.299 174.063 390.808 174.783 390.456C175.503 390.105 176.286 389.9 177.086 389.855L188.905 389.208C189.706 389.164 190.509 389.281 191.264 389.552C192.02 389.823 192.714 390.243 193.305 390.786C193.897 391.329 194.373 391.984 194.708 392.714C195.042 393.444 195.227 394.234 195.251 395.036Z" stroke="#263238" stroke-linecap="round" stroke-linejoin="round"/>
<path d="M179.191 398.274L205.095 869.371C205.124 869.907 205.258 870.432 205.491 870.916C205.723 871.4 206.048 871.833 206.448 872.191C206.848 872.549 207.315 872.824 207.822 873.002C208.329 873.179 208.865 873.254 209.401 873.224H212.251" fill="#407BFF"/>
<path d="M179.191 398.274L205.095 869.371C205.124 869.907 205.258 870.432 205.491 870.916C205.723 871.4 206.048 871.833 206.448 872.191C206.848 872.549 207.315 872.825 207.822 873.002C208.329 873.179 208.865 873.254 209.401 873.224H212.251" stroke="#263238" stroke-linecap="round" stroke-linejoin="round"/>
<path opacity="0.2" d="M297.086 972.889L384.869 399.342C387.574 381.71 397.171 365.873 411.549 355.314C425.927 344.755 443.91 340.338 461.544 343.034L1304.43 472.068C1313.16 473.4 1321.55 476.439 1329.1 481.012C1336.66 485.584 1343.24 491.601 1348.48 498.719C1353.71 505.836 1357.49 513.914 1359.6 522.492C1361.7 531.07 1362.1 539.979 1360.77 548.711L1272.95 1122.26C1271.63 1131 1268.6 1139.39 1264.03 1146.95C1259.46 1154.51 1253.44 1161.1 1246.32 1166.34C1239.2 1171.57 1231.12 1175.35 1222.54 1177.46C1213.96 1179.57 1205.05 1179.97 1196.31 1178.63L353.395 1049.57C335.763 1046.86 319.926 1037.26 309.367 1022.88C298.808 1008.51 294.391 990.523 297.086 972.889Z" fill="black" fill-opacity="0.7"/>
<path d="M364.734 420.921L371.4 377.359C371.53 376.51 371.992 375.748 372.684 375.239C373.376 374.731 374.241 374.518 375.09 374.648L393.463 377.459L385.822 427.391L367.45 424.58C366.606 424.451 365.848 423.994 365.339 423.309C364.831 422.624 364.613 421.766 364.734 420.921Z" fill="#407BFF" stroke="#263238" stroke-linecap="round" stroke-linejoin="round"/>
<path d="M478.857 329.173L522.419 335.839C523.268 335.969 524.031 336.431 524.539 337.123C525.047 337.815 525.26 338.681 525.13 339.53L522.319 357.902L472.387 350.261L475.199 331.889C475.328 331.046 475.784 330.287 476.469 329.779C477.154 329.27 478.012 329.053 478.857 329.173Z" fill="#407BFF" stroke="#263238" stroke-linecap="round" stroke-linejoin="round"/>
<path d="M538.228 338.241L581.79 344.907C582.639 345.037 583.401 345.499 583.91 346.191C584.418 346.883 584.631 347.749 584.501 348.597L581.689 366.97L531.758 359.329L534.569 340.957C534.698 340.113 535.155 339.355 535.84 338.847C536.525 338.338 537.383 338.12 538.228 338.241Z" fill="#407BFF" stroke="#263238" stroke-linecap="round" stroke-linejoin="round"/>
<path d="M287.372 959.937L375.155 386.39C377.86 368.758 387.457 352.921 401.835 342.362C416.213 331.803 434.196 327.386 451.83 330.082L1294.71 459.116C1303.45 460.448 1311.83 463.487 1319.39 468.06C1326.95 472.633 1333.53 478.649 1338.76 485.767C1343.99 492.884 1347.77 500.962 1349.88 509.54C1351.99 518.118 1352.39 527.027 1351.06 535.759L1263.24 1109.31C1261.92 1118.04 1258.88 1126.43 1254.31 1134C1249.74 1141.56 1243.73 1148.15 1236.61 1153.39C1229.49 1158.62 1221.41 1162.4 1212.83 1164.51C1204.25 1166.62 1195.33 1167.02 1186.6 1165.68L343.681 1036.61C326.049 1033.91 310.212 1024.31 299.653 1009.93C289.094 995.555 284.677 977.572 287.372 959.937Z" fill="#407BFF" stroke="#263238" stroke-linecap="round" stroke-linejoin="round"/>
<path d="M1189.9 1158.52L342.645 1028.84C335.174 1027.7 328.001 1025.1 321.536 1021.19C315.07 1017.28 309.439 1012.13 304.965 1006.04C300.49 999.954 297.259 993.042 295.458 985.703C293.656 978.364 293.318 970.742 294.464 963.272L382.926 385.322C385.232 370.238 393.436 356.688 405.733 347.652C418.029 338.617 433.411 334.835 448.495 337.14L1295.78 466.822C1310.87 469.145 1324.41 477.357 1333.44 489.657C1342.48 501.956 1346.26 517.338 1343.96 532.424L1255.5 1110.34C1254.36 1117.81 1251.76 1124.99 1247.84 1131.45C1243.93 1137.92 1238.78 1143.55 1232.68 1148.02C1226.59 1152.5 1219.68 1155.73 1212.34 1157.53C1205 1159.33 1197.37 1159.67 1189.9 1158.52Z" fill="#757575" stroke="#263238" stroke-linecap="round" stroke-linejoin="round"/>
<path d="M352.942 676.483C352.834 677.109 352.545 677.69 352.109 678.153C351.674 678.616 351.111 678.941 350.493 679.087C349.874 679.232 349.226 679.193 348.629 678.972C348.033 678.752 347.515 678.361 347.139 677.849C346.763 677.336 346.547 676.724 346.516 676.089C346.486 675.454 346.643 674.824 346.969 674.278C347.294 673.732 347.773 673.293 348.346 673.017C348.919 672.742 349.56 672.64 350.19 672.727C350.62 672.786 351.034 672.931 351.408 673.153C351.781 673.375 352.106 673.67 352.363 674.021C352.619 674.371 352.803 674.77 352.903 675.193C353.002 675.616 353.016 676.055 352.942 676.483Z" fill="#999999" stroke="#263238" stroke-linecap="round" stroke-linejoin="round"/>
<path d="M351.355 706.628C351.029 708.214 350.106 709.614 348.777 710.539C347.448 711.463 345.815 711.842 344.214 711.597C342.614 711.352 341.169 710.501 340.178 709.221C339.187 707.941 338.726 706.329 338.889 704.718C339.215 703.132 340.138 701.732 341.467 700.808C342.796 699.883 344.43 699.504 346.03 699.75C347.63 699.995 349.075 700.845 350.066 702.126C351.057 703.406 351.519 705.018 351.355 706.628Z" fill="#263238"/>
<path d="M362.462 634.065C362.135 635.651 361.212 637.051 359.883 637.975C358.554 638.9 356.921 639.279 355.321 639.033C353.72 638.788 352.275 637.938 351.284 636.657C350.293 635.377 349.832 633.765 349.995 632.155C350.082 631.303 350.341 630.477 350.756 629.729C351.171 628.98 351.735 628.324 352.412 627.799C353.089 627.275 353.866 626.894 354.694 626.68C355.523 626.465 356.387 626.421 357.234 626.551C358.08 626.681 358.891 626.981 359.618 627.434C360.344 627.887 360.971 628.483 361.46 629.186C361.949 629.889 362.29 630.684 362.462 631.523C362.634 632.361 362.634 633.226 362.462 634.065Z" fill="#263238"/>
<path d="M346.466 726.996C346.328 727.894 345.926 728.731 345.312 729.402C344.698 730.072 343.899 730.545 343.016 730.762C342.133 730.978 341.206 730.928 340.352 730.617C339.497 730.307 338.754 729.75 338.216 729.018C337.678 728.285 337.369 727.409 337.328 726.501C337.288 725.593 337.517 724.694 337.988 723.916C338.458 723.138 339.149 722.517 339.972 722.132C340.795 721.746 341.714 721.613 342.613 721.75C343.21 721.841 343.784 722.049 344.302 722.362C344.819 722.675 345.269 723.086 345.627 723.574C345.985 724.061 346.243 724.614 346.387 725.201C346.531 725.788 346.558 726.398 346.466 726.996Z" fill="#263238"/>
<path d="M1322.69 522.484L1232.25 1113.48C1231.11 1120.93 1227.06 1127.62 1220.99 1132.08C1214.92 1136.55 1207.32 1138.42 1199.87 1137.28L490.071 1028.65L474.691 1026.45L416.828 1017.57L388.819 1013.3L348.344 1007.02L339.504 1005.66C332.056 1004.52 325.366 1000.47 320.903 994.393C316.441 988.322 314.571 980.727 315.705 973.278L406.175 382.084C406.736 378.395 408.019 374.853 409.951 371.661C411.883 368.469 414.426 365.69 417.433 363.482C420.441 361.274 423.855 359.682 427.479 358.795C431.104 357.909 434.867 357.746 438.555 358.317L703.52 398.857L743.607 405.009L781.912 410.87L831.13 418.382L848.939 421.102L1299.02 489.974C1302.71 490.554 1306.25 491.855 1309.43 493.802C1312.62 495.75 1315.39 498.306 1317.59 501.325C1319.79 504.344 1321.37 507.767 1322.25 511.397C1323.12 515.027 1323.27 518.795 1322.69 522.484Z" fill="#263238"/>
<g opacity="0.1">
<path d="M657.314 1023.21L356.18 977.131C354.223 976.828 352.467 975.761 351.295 974.165C350.124 972.569 349.633 970.573 349.931 968.615L379.817 773.267C380.128 771.307 381.202 769.551 382.803 768.38C384.405 767.209 386.404 766.719 388.366 767.017L689.5 813.094C690.47 813.24 691.403 813.577 692.243 814.085C693.083 814.592 693.815 815.261 694.395 816.053C694.976 816.844 695.395 817.742 695.627 818.696C695.859 819.65 695.901 820.64 695.749 821.61L665.862 1016.96C665.712 1017.93 665.372 1018.86 664.861 1019.7C664.35 1020.54 663.678 1021.28 662.884 1021.86C662.09 1022.44 661.19 1022.86 660.234 1023.09C659.278 1023.32 658.286 1023.36 657.314 1023.21ZM388.074 769.608C387.443 769.511 386.798 769.54 386.178 769.693C385.558 769.846 384.974 770.12 384.459 770.499C383.945 770.878 383.51 771.355 383.181 771.902C382.851 772.449 382.632 773.056 382.537 773.688L352.651 969.004C352.554 969.635 352.583 970.28 352.736 970.9C352.889 971.521 353.163 972.105 353.542 972.619C353.921 973.133 354.397 973.568 354.945 973.898C355.492 974.227 356.099 974.446 356.73 974.541L657.703 1020.62C658.334 1020.71 658.978 1020.69 659.599 1020.53C660.219 1020.38 660.803 1020.11 661.318 1019.73C661.832 1019.35 662.266 1018.87 662.596 1018.32C662.926 1017.78 663.145 1017.17 663.24 1016.54L693.159 821.222C693.345 819.944 693.022 818.643 692.259 817.602C691.496 816.56 690.354 815.86 689.079 815.652L388.074 769.608Z" fill="white"/>
</g>
<path opacity="0.4" d="M478.9 887.827L546.315 926.068C553.454 912.977 556.771 898.144 555.889 883.259C555.008 868.374 549.963 854.037 541.329 841.88L478.9 887.827Z" fill="#407BFF"/>
<path opacity="0.6" d="M479.548 883.974L539.774 839.71C531.636 828.988 520.906 820.509 508.593 815.069L496.709 843.24L479.548 883.974Z" fill="#407BFF"/>
<path d="M489.812 809.5L479.386 877.498L506.197 813.936C500.908 811.881 495.415 810.394 489.812 809.5Z" fill="#407BFF"/>
<path opacity="0.1" d="M475.338 887.017L487.222 809.305C473.574 807.44 459.675 809.153 446.889 814.277C434.102 819.401 422.867 827.76 414.283 838.534C405.7 849.308 400.064 862.127 397.927 875.735C395.791 889.343 397.227 903.273 402.095 916.159L475.338 887.017Z" fill="white"/>
<path opacity="0.2" d="M464.459 966.543C480.171 968.946 496.242 966.587 510.601 959.771C524.96 952.955 536.948 941.995 545.02 928.302L476.407 889.446L403.034 918.426C408.272 931.051 416.677 942.111 427.436 950.54C438.196 958.968 450.947 964.48 464.459 966.543Z" fill="#407BFF"/>
<path d="M601.494 841.06L592.564 839.693C591.45 839.523 590.409 840.288 590.239 841.401L588.872 850.331C588.702 851.445 589.466 852.486 590.58 852.656L599.51 854.023C600.624 854.193 601.665 853.429 601.835 852.315L603.202 843.385C603.372 842.271 602.607 841.23 601.494 841.06Z" fill="#407BFF"/>
<path d="M650.028 853.375L611.01 847.384C610.814 847.357 610.625 847.29 610.454 847.188C610.284 847.087 610.135 846.952 610.018 846.792C609.9 846.632 609.816 846.45 609.769 846.257C609.723 846.064 609.716 845.864 609.748 845.668C609.775 845.472 609.842 845.283 609.944 845.112C610.045 844.942 610.18 844.793 610.34 844.676C610.5 844.558 610.682 844.473 610.875 844.427C611.068 844.381 611.268 844.373 611.464 844.405L650.32 850.396C650.516 850.423 650.705 850.49 650.876 850.592C651.046 850.693 651.195 850.828 651.313 850.988C651.43 851.148 651.515 851.33 651.561 851.523C651.607 851.716 651.615 851.916 651.583 852.112C651.514 852.472 651.32 852.796 651.036 853.027C650.752 853.258 650.395 853.381 650.028 853.375Z" fill="#407BFF"/>
<path d="M637.109 858.07L610.007 853.925C609.81 853.898 609.621 853.831 609.451 853.729C609.28 853.628 609.132 853.493 609.014 853.333C608.896 853.173 608.812 852.991 608.765 852.798C608.719 852.605 608.712 852.405 608.744 852.209C608.808 851.816 609.023 851.463 609.344 851.227C609.665 850.991 610.066 850.89 610.46 850.946L637.562 855.091C637.759 855.118 637.948 855.185 638.118 855.287C638.289 855.389 638.437 855.523 638.555 855.683C638.672 855.843 638.757 856.025 638.803 856.218C638.85 856.411 638.857 856.611 638.825 856.807C638.797 857.004 638.731 857.193 638.629 857.363C638.527 857.534 638.393 857.682 638.233 857.8C638.073 857.917 637.891 858.002 637.698 858.048C637.505 858.095 637.305 858.102 637.109 858.07Z" fill="#407BFF"/>
<path opacity="0.6" d="M597.059 870.072L588.129 868.705C587.015 868.535 585.974 869.299 585.804 870.413L584.438 879.343C584.267 880.457 585.032 881.498 586.145 881.668L595.075 883.035C596.189 883.205 597.23 882.44 597.401 881.327L598.767 872.396C598.937 871.283 598.173 870.242 597.059 870.072Z" fill="#407BFF"/>
<path d="M645.592 882.355L606.542 876.397C606.153 876.326 605.805 876.108 605.57 875.789C605.336 875.47 605.232 875.074 605.279 874.681C605.343 874.288 605.559 873.935 605.879 873.699C606.2 873.463 606.601 873.362 606.995 873.418L646.046 879.408C646.239 879.438 646.425 879.506 646.592 879.607C646.76 879.709 646.905 879.842 647.021 880C647.137 880.158 647.22 880.337 647.267 880.527C647.313 880.717 647.322 880.915 647.292 881.108C647.263 881.302 647.195 881.487 647.093 881.655C646.992 881.822 646.858 881.968 646.701 882.084C646.543 882.199 646.364 882.283 646.173 882.329C645.983 882.376 645.786 882.385 645.592 882.355Z" fill="#407BFF"/>
<path d="M632.673 887.018L605.506 882.873C605.155 882.767 604.854 882.539 604.658 882.229C604.463 881.919 604.385 881.549 604.44 881.187C604.496 880.825 604.679 880.495 604.959 880.257C605.238 880.02 605.593 879.891 605.959 879.894L633.061 884.039C633.258 884.066 633.447 884.133 633.617 884.235C633.788 884.336 633.936 884.471 634.054 884.631C634.172 884.791 634.256 884.973 634.303 885.166C634.349 885.359 634.356 885.559 634.324 885.755C634.268 886.139 634.064 886.486 633.755 886.722C633.447 886.958 633.058 887.064 632.673 887.018Z" fill="#407BFF"/>
<path opacity="0.4" d="M594.648 899.69L585.705 898.335C584.589 898.166 583.548 898.933 583.379 900.048L582.024 908.992C581.855 910.107 582.622 911.149 583.737 911.318L592.681 912.673C593.797 912.842 594.838 912.074 595.007 910.959L596.362 902.015C596.531 900.9 595.764 899.859 594.648 899.69Z" fill="#407BFF"/>
<path d="M641.124 911.368L602.268 905.41C601.917 905.304 601.616 905.075 601.42 904.765C601.225 904.456 601.147 904.086 601.202 903.724C601.258 903.361 601.441 903.031 601.72 902.794C601.999 902.556 602.355 902.427 602.721 902.431L641.577 908.389C641.774 908.416 641.963 908.483 642.133 908.584C642.304 908.686 642.452 908.821 642.57 908.981C642.688 909.141 642.772 909.323 642.818 909.516C642.865 909.709 642.872 909.909 642.84 910.105C642.812 910.301 642.746 910.49 642.644 910.661C642.542 910.831 642.408 910.98 642.248 911.097C642.088 911.215 641.906 911.3 641.713 911.346C641.52 911.392 641.32 911.4 641.124 911.368Z" fill="#407BFF"/>
<path d="M628.172 916.03L601.07 911.885C600.719 911.78 600.418 911.551 600.222 911.241C600.027 910.931 599.949 910.561 600.004 910.199C600.06 909.837 600.243 909.507 600.522 909.269C600.801 909.032 601.157 908.903 601.523 908.906L628.625 913.051C628.976 913.157 629.277 913.385 629.473 913.695C629.669 914.005 629.746 914.375 629.691 914.737C629.636 915.099 629.452 915.43 629.173 915.667C628.894 915.905 628.538 916.033 628.172 916.03Z" fill="#407BFF"/>
<path opacity="0.2" d="M588.19 928.094L579.26 926.728C578.146 926.557 577.105 927.322 576.935 928.435L575.568 937.366C575.398 938.479 576.163 939.52 577.276 939.691L586.206 941.057C587.32 941.227 588.361 940.463 588.531 939.349L589.898 930.419C590.068 929.305 589.304 928.264 588.19 928.094Z" fill="#407BFF"/>
<path d="M636.688 940.38L597.832 934.422C597.439 934.358 597.086 934.143 596.85 933.822C596.614 933.501 596.513 933.1 596.569 932.706C596.597 932.509 596.663 932.32 596.765 932.15C596.867 931.979 597.001 931.831 597.161 931.713C597.321 931.595 597.503 931.511 597.696 931.465C597.889 931.418 598.089 931.411 598.285 931.443L637.303 937.401C637.5 937.428 637.689 937.495 637.859 937.597C638.03 937.698 638.178 937.833 638.296 937.993C638.413 938.153 638.498 938.335 638.544 938.528C638.591 938.721 638.598 938.921 638.566 939.117C638.541 939.331 638.47 939.536 638.358 939.72C638.246 939.904 638.096 940.061 637.918 940.181C637.739 940.301 637.537 940.381 637.325 940.415C637.112 940.449 636.895 940.437 636.688 940.38Z" fill="#407BFF"/>
<path d="M623.801 945.043L596.699 940.898C596.502 940.87 596.313 940.804 596.142 940.702C595.972 940.6 595.824 940.466 595.706 940.306C595.588 940.146 595.504 939.964 595.457 939.771C595.411 939.578 595.404 939.378 595.436 939.182C595.463 938.985 595.53 938.796 595.632 938.626C595.733 938.455 595.868 938.307 596.028 938.189C596.188 938.072 596.37 937.987 596.563 937.941C596.756 937.894 596.956 937.887 597.152 937.919L624.254 942.064C624.647 942.128 625 942.343 625.236 942.664C625.472 942.985 625.573 943.385 625.517 943.78C625.489 943.976 625.423 944.165 625.321 944.336C625.219 944.506 625.084 944.655 624.925 944.773C624.765 944.89 624.583 944.975 624.39 945.021C624.197 945.067 623.997 945.075 623.801 945.043Z" fill="#407BFF"/>
<path opacity="0.1" d="M583.755 957.138L574.825 955.771C573.712 955.601 572.671 956.366 572.5 957.479L571.134 966.409C570.963 967.523 571.728 968.564 572.842 968.735L581.772 970.101C582.885 970.271 583.926 969.507 584.097 968.393L585.463 959.463C585.634 958.349 584.869 957.308 583.755 957.138Z" fill="white"/>
<path d="M632.252 969.392L593.396 963.434C593.003 963.37 592.65 963.155 592.414 962.834C592.178 962.513 592.077 962.112 592.133 961.718C592.161 961.521 592.227 961.332 592.329 961.162C592.431 960.991 592.565 960.843 592.725 960.725C592.885 960.608 593.067 960.523 593.26 960.477C593.453 960.43 593.653 960.423 593.849 960.455L632.867 966.413C633.064 966.441 633.253 966.507 633.423 966.609C633.594 966.711 633.742 966.846 633.86 967.005C633.977 967.165 634.062 967.347 634.108 967.54C634.155 967.733 634.162 967.933 634.13 968.129C634.105 968.343 634.034 968.548 633.922 968.732C633.81 968.916 633.66 969.073 633.482 969.193C633.303 969.313 633.101 969.393 632.889 969.427C632.676 969.462 632.459 969.45 632.252 969.392Z" fill="#407BFF"/>
<path d="M619.365 974.055L592.23 969.91C592.036 969.879 591.851 969.809 591.684 969.706C591.517 969.603 591.373 969.467 591.258 969.308C591.144 969.148 591.062 968.968 591.018 968.777C590.973 968.586 590.967 968.388 591 968.194C591.023 967.996 591.087 967.804 591.187 967.631C591.287 967.458 591.422 967.308 591.583 967.19C591.744 967.071 591.928 966.987 592.123 966.943C592.318 966.898 592.519 966.894 592.716 966.931L619.818 971.076C620.036 971.078 620.251 971.127 620.448 971.219C620.646 971.312 620.821 971.445 620.962 971.611C621.104 971.777 621.208 971.972 621.267 972.181C621.327 972.391 621.341 972.611 621.308 972.827C621.275 973.042 621.197 973.248 621.077 973.431C620.958 973.613 620.801 973.768 620.617 973.884C620.432 974.001 620.225 974.076 620.009 974.106C619.793 974.135 619.573 974.118 619.365 974.055Z" fill="#407BFF"/>
<g opacity="0.1">
<path d="M1224.48 894.918L735.026 820.023C733.065 819.725 731.065 820.215 729.463 821.386C727.862 822.557 726.789 824.313 726.478 826.273L724.405 839.743L724.017 842.333L721.232 860.498L720.843 863.089L718.059 881.222L717.67 883.78L714.886 901.945L714.497 904.503L711.712 922.668L711.324 925.258L708.539 943.391L708.15 945.982L705.366 964.114L704.977 966.705L702.193 984.838L701.804 987.428L699.019 1005.56L698.631 1008.15L696.591 1021.62C696.439 1022.59 696.48 1023.59 696.712 1024.54C696.944 1025.5 697.362 1026.4 697.942 1027.19C698.523 1027.99 699.254 1028.66 700.095 1029.17C700.935 1029.68 701.868 1030.02 702.84 1030.17L1192.2 1105.06C1194.16 1105.35 1196.15 1104.85 1197.74 1103.68C1199.33 1102.5 1200.39 1100.74 1200.68 1098.78L1202.76 1085.31L1203.14 1082.72L1205.93 1064.59L1206.32 1062L1209.1 1043.83L1209.49 1041.28L1212.27 1023.14L1212.66 1020.55L1215.45 1002.42L1215.84 999.829L1218.62 981.664L1219.01 979.106L1221.79 960.941L1222.18 958.383L1224.97 940.25L1225.36 937.66L1228.14 919.495L1228.53 916.904L1230.6 903.434C1230.9 901.496 1230.43 899.517 1229.28 897.924C1228.14 896.331 1226.41 895.252 1224.48 894.918ZM1198.25 1098.39C1198.05 1099.67 1197.36 1100.81 1196.32 1101.57C1195.29 1102.34 1193.99 1102.66 1192.72 1102.47L703.391 1027.58C702.11 1027.38 700.96 1026.68 700.19 1025.64C699.42 1024.6 699.092 1023.29 699.278 1022.01L701.351 1008.54L1200.29 1084.92L1198.25 1098.39ZM1200.72 1082.2L701.739 1005.85L704.524 987.687L1203.47 1064.07L1200.72 1082.2ZM1203.95 1061.48L704.912 985.258L707.697 967.093L1206.64 1043.45L1203.95 1061.48ZM1207.19 1040.76L708.215 964.373L711 946.241L1209.94 1022.59L1207.19 1040.76ZM1210.43 1020.03L711.453 943.65L714.238 925.517L1213.18 1001.9L1210.43 1020.03ZM1213.67 999.311L714.691 922.927L717.476 904.762L1216.42 981.146L1213.67 999.311ZM1216.91 978.556L717.929 902.204L720.714 884.071L1219.66 960.423L1216.91 978.556ZM1220.14 957.833L720.779 881.61L723.563 863.477L1222.51 939.829L1220.14 957.833ZM1223.38 937.142L723.952 860.887L726.737 842.722L1225.68 919.106L1223.38 937.142ZM727.611 840.002L729.683 826.564C729.778 825.932 729.997 825.325 730.327 824.778C730.656 824.231 731.091 823.754 731.605 823.375C732.12 822.996 732.704 822.723 733.324 822.57C733.944 822.417 734.589 822.388 735.22 822.484L1223.96 897.509C1225.23 897.708 1226.37 898.403 1227.13 899.441C1227.89 900.479 1228.21 901.775 1228.01 903.046L1225.94 916.516L727.611 840.002Z" fill="white"/>
</g>
<g opacity="0.1">
<path d="M1276.74 546.315L442.894 418.673C441.786 418.503 440.655 418.554 439.567 418.821C438.478 419.089 437.453 419.569 436.551 420.234C435.648 420.899 434.886 421.736 434.307 422.696C433.729 423.656 433.346 424.721 433.18 425.829L386.455 731.076C386.12 733.307 386.681 735.581 388.015 737.4C389.35 739.22 391.35 740.438 393.579 740.79L1227.46 868.431C1229.69 868.767 1231.97 868.206 1233.79 866.871C1235.61 865.537 1236.82 863.537 1237.17 861.308L1283.9 556.029C1284.07 554.921 1284.02 553.791 1283.75 552.702C1283.48 551.614 1283 550.589 1282.34 549.686C1281.67 548.784 1280.84 548.022 1279.88 547.443C1278.92 546.865 1277.85 546.481 1276.74 546.315ZM596.763 590.19L654.659 599.03L649.607 631.928L591.615 623.056L596.763 590.19ZM589.154 622.57L531.032 613.86L536.083 580.929L594.076 589.802L589.154 622.57ZM657.314 599.483L715.339 608.355L710.288 641.286L652.295 632.414L657.314 599.483ZM958.059 642.872L900.067 634L905.086 601.07L963.111 609.942L958.059 642.872ZM965.669 610.492L1023.69 619.365L1018.64 652.295L960.65 643.423L965.669 610.492ZM778.48 618.199L836.505 627.071L831.454 660.001L773.364 650.838L778.48 618.199ZM770.871 650.579L712.878 641.707L717.8 608.744L775.825 617.616L770.871 650.579ZM839.063 627.33L896.926 636.17L891.875 669.1L833.882 660.228L839.063 627.33ZM899.646 636.591L957.671 645.463L952.62 678.393L894.627 669.521L899.646 636.591ZM897.476 633.612L839.484 624.74L844.503 591.809L902.528 600.714L897.476 633.612ZM836.893 624.351L778.901 615.479L783.92 582.548L841.88 591.388L836.893 624.351ZM776.213 615.22L718.221 606.315L723.24 573.126L781.265 581.998L776.213 615.22ZM715.598 605.765L657.605 596.893L662.624 563.962L720.649 572.834L715.598 605.765ZM709.77 643.876L704.751 676.742L646.758 667.87L651.809 634.939L709.77 643.876ZM712.36 644.265L770.353 653.137L765.301 686.067L707.309 677.195L712.36 644.265ZM772.943 653.525L830.935 662.398L825.884 695.328L767.924 686.456L772.943 653.525ZM833.526 662.786L891.518 671.691L886.467 704.589L828.475 695.717L833.526 662.786ZM894.109 672.079L952.102 680.951L947.05 713.882L889.058 705.01L894.109 672.079ZM954.692 681.34L1012.68 690.212L1007.63 723.142L949.641 714.27L954.692 681.34ZM955.08 678.782L960.099 645.851L1018.12 654.723L1013.07 687.654L955.08 678.782ZM1020.68 655.112L1078.71 663.984L1073.66 696.915L1015.66 688.043L1020.68 655.112ZM1081.27 664.373L1139.29 673.277L1134.24 706.175L1076.25 697.303L1081.27 664.373ZM1081.69 661.815L1086.71 628.884L1144.76 637.886L1139.78 670.687L1081.69 661.815ZM1079.1 661.426L1021.1 652.522L1026.12 619.591L1084.15 628.496L1079.1 661.426ZM1026.45 617.033L1031.5 584.103L1089.49 592.975L1084.73 625.905L1026.45 617.033ZM1023.89 616.645L965.895 607.74L970.914 574.842L1028.91 583.714L1023.89 616.645ZM963.305 607.352L905.28 598.479L910.331 565.549L968.324 574.421L963.305 607.352ZM902.722 598.091L844.794 589.316L849.845 556.385L907.838 565.258L902.722 598.091ZM842.139 588.798L784.243 579.926L789.262 546.995L847.255 555.9L842.139 588.798ZM781.653 579.602L723.661 570.73L728.55 537.735L786.834 546.607L781.653 579.602ZM721.07 570.341L663.045 561.469L668.096 528.539L726.089 537.508L721.07 570.341ZM660.552 560.983L602.559 552.111L607.578 519.181L665.571 528.085L660.552 560.983ZM660.163 563.574L655.112 596.504L597.12 587.632L602.138 554.702L660.163 563.574ZM594.529 587.244L536.536 578.339L541.555 545.409L599.58 554.313L594.529 587.244ZM533.946 577.951L475.986 569.078L481.005 536.148L539.03 545.02L533.946 577.951ZM533.558 580.541L528.506 613.471L470.514 604.599L475.565 571.669L533.558 580.541ZM528.118 616.159L523.066 649.089L465.074 640.217L470.125 607.287L528.118 616.159ZM530.708 616.58L588.701 625.452L583.649 658.382L525.657 649.478L530.708 616.58ZM591.291 625.841L649.219 634.648L644.168 667.578L586.078 658.641L591.291 625.841ZM643.779 670.266L638.728 703.196L580.735 694.292L585.786 661.361L643.779 670.266ZM646.369 670.654L704.362 679.527L699.408 712.36L641.383 703.488L646.369 670.654ZM706.952 679.915L764.945 688.787L759.894 721.718L701.901 712.846L706.952 679.915ZM767.406 689.046L825.69 697.918L820.639 730.849L762.484 722.074L767.406 689.046ZM827.989 698.307L885.981 707.179L880.93 740.11L822.938 731.237L827.989 698.307ZM888.572 707.568L946.564 716.472L941.513 749.37L883.521 740.498L888.572 707.568ZM949.155 716.861L1007.15 725.733L1002.1 758.663L944.104 749.791L949.155 716.861ZM1009.74 726.121L1067.86 735.026L1062.81 767.956L1004.82 759.084L1009.74 726.121ZM1010.13 723.531L1015.18 690.633L1073.3 699.408L1068.25 732.338L1010.13 723.531ZM1075.76 699.894L1133.75 708.766L1128.7 741.696L1070.71 732.824L1075.76 699.894ZM1136.54 709.122L1194.53 717.994L1189.48 750.924L1131.49 742.052L1136.54 709.122ZM1136.93 706.564L1141.95 673.633L1199.97 682.506L1194.82 715.598L1136.93 706.564ZM1142.37 670.946L1147.39 638.015L1205.41 646.888L1200.29 679.98L1142.37 670.946ZM1147.77 635.328L1152.73 602.656L1210.72 611.529L1205.73 644.362L1147.77 635.328ZM1145.22 634.907L1087.19 626.035L1092.24 593.104L1150.17 602.268L1145.22 634.907ZM1092.63 590.546L1097.68 557.875L1155.61 566.65L1150.59 599.58L1092.63 590.546ZM1090.07 590.125L1032.05 581.253L1037.1 548.323L1095.09 557.227L1090.07 590.125ZM1029.49 580.865L971.4 572.252L976.451 539.321L1034.44 548.193L1029.49 580.865ZM968.907 571.604L910.882 562.732L915.933 529.801L973.926 538.674L968.907 571.604ZM908.324 562.311L850.234 553.698L855.285 520.767L913.278 529.64L908.324 562.311ZM847.741 553.05L789.716 544.178L794.702 511.604L852.695 520.476L847.741 553.05ZM787.093 543.984L729.068 535.079L734.119 502.181L792.112 511.053L787.093 543.984ZM726.51 534.691L668.485 525.819L673.504 492.953L731.529 501.89L726.51 534.691ZM665.927 525.43L607.902 516.558L612.953 483.628L670.946 492.5L665.927 525.43ZM605.506 516.202L547.222 507.33L552.273 474.399L610.266 483.304L605.506 516.202ZM605.085 518.792L600.066 551.723L542.074 542.851L547.092 509.92L605.085 518.792ZM539.483 542.462L481.491 533.558L486.509 500.659L544.502 509.532L539.483 542.462ZM478.9 533.169L420.908 524.297L425.926 491.366L483.951 500.239L478.9 533.169ZM478.512 535.759L473.46 568.69L415.468 559.818L420.487 526.887L478.512 535.759ZM473.072 571.377L468.02 604.308L410.028 595.436L415.079 562.505L473.072 571.377ZM467.632 606.995L462.581 639.926L404.588 631.054L409.639 598.123L467.632 606.995ZM462.192 642.613L457.173 675.511L399.148 666.639L404.199 633.709L462.192 642.613ZM464.782 643.002L522.775 651.874L517.756 684.805L459.731 675.932L464.782 643.002ZM525.365 652.263L583.358 661.135L578.307 694.065L520.314 685.193L525.365 652.263ZM577.918 696.656L572.899 729.586L514.842 720.39L519.893 687.46L577.918 696.656ZM580.509 697.044L638.501 705.916L633.482 738.847L575.457 729.975L580.509 697.044ZM640.93 705.884L698.922 714.788L693.903 747.686L635.878 738.814L640.93 705.884ZM701.513 715.177L759.505 724.049L754.454 757.077L696.429 748.205L701.513 715.177ZM762.096 724.438L820.088 733.31L815.069 766.24L757.044 757.368L762.096 724.438ZM822.679 733.731L880.736 742.7L875.717 775.63L817.692 766.726L822.679 733.731ZM883.262 742.991L941.254 751.863L936.235 784.794L878.21 775.922L883.262 742.991ZM943.845 752.252L1001.84 761.124L996.818 794.055L938.793 785.183L943.845 752.252ZM1004.43 761.545L1062.42 770.644L1057.4 803.574L999.376 794.702L1004.43 761.545ZM1065.01 770.806L1123 779.678L1117.98 812.738L1059.96 803.866L1065.01 770.806ZM1065.4 768.215L1070.45 735.285L1128.44 744.189L1123.39 777.12L1065.4 768.215ZM1131.03 744.74L1189.03 753.612L1183.97 786.542L1125.98 777.67L1131.03 744.74ZM1191.58 753.936L1249.58 762.808L1244.53 795.738L1186.57 786.834L1191.58 753.936ZM1191.97 751.378L1197.02 718.447L1255.02 727.319L1249.87 760.25L1191.97 751.378ZM1197.41 715.76L1202.43 682.829L1260.46 691.701L1255.4 724.632L1197.41 715.76ZM1202.85 680.142L1207.77 647.6L1266.06 656.31L1261.04 689.241L1202.85 680.142ZM1208.26 644.524L1213.34 611.982L1271.34 620.854L1266.32 653.784L1208.26 644.524ZM1213.7 608.906L1218.78 576.364L1276.78 585.236L1271.76 618.166L1213.7 608.906ZM1211.14 608.517L1153.12 599.645L1158.17 566.715L1216.16 575.587L1211.14 608.517ZM1158.56 564.124L1163.61 531.226L1221.6 540.098L1216.55 573.029L1158.56 564.124ZM1155.97 563.736L1097.97 554.864L1103.02 521.933L1161.02 530.805L1155.97 563.736ZM1095.38 554.475L1037.39 545.603L1042.64 513.093L1100.63 521.965L1095.38 554.475ZM1034.8 545.214L976.807 536.31L981.859 503.412L1039.85 512.284L1034.8 545.214ZM974.217 535.921L916.354 527.47L921.405 494.54L979.398 503.412L974.217 535.921ZM913.634 526.661L855.674 518.08L860.725 485.149L918.718 494.022L913.634 526.661ZM853.051 517.368L795.058 508.495L800.142 475.986L858.07 484.89L853.051 517.368ZM792.5 508.107L734.475 499.235L739.527 466.304L797.519 475.176L792.5 508.107ZM731.917 498.846L673.892 489.942L678.944 457.044L736.969 466.272L731.917 498.846ZM671.302 489.553L613.31 480.681L618.458 448.171L676.451 457.044L671.302 489.553ZM610.751 480.292L552.727 471.42L557.778 438.49L615.77 447.362L610.751 480.292ZM550.169 471.032L492.176 462.548L497.227 429.65L555.22 438.522L550.169 471.032ZM549.748 473.59L544.729 506.52L486.704 497.648L491.755 464.718L549.748 473.59ZM484.146 497.26L426.153 488.938L431.204 456.007L489.197 464.88L484.146 497.26ZM398.598 668.906L456.558 677.778L451.539 710.709L393.514 701.836L398.598 668.906ZM459.181 678.167L517.173 687.039L512.154 719.969L454.129 711.097L459.181 678.167ZM511.604 722.56L506.585 755.49L448.592 746.618L453.611 713.687L511.604 722.56ZM514.194 722.948L572.316 731.788L567.298 764.718L509.305 755.846L514.194 722.948ZM574.777 732.241L632.77 741.113L627.751 774.044L569.888 765.139L574.777 732.241ZM635.49 741.502L693.482 750.374L688.463 783.304L630.439 774.432L635.49 741.502ZM696.17 750.763L754.163 759.667L749.144 792.565L691.054 783.596L696.17 750.763ZM756.753 760.056L814.745 768.928L809.5 801.858L751.507 792.986L756.753 760.056ZM817.336 769.316L875.328 778.188L870.31 811.119L812.285 802.247L817.336 769.316ZM877.919 778.577L935.782 787.481L930.763 820.38L872.738 811.507L877.919 778.577ZM938.502 787.87L996.494 796.742L991.476 829.673L933.451 820.801L938.502 787.87ZM999.085 797.131L1057.08 806.003L1052.06 838.933L994.066 830.061L999.085 797.131ZM1059.67 806.424L1117.66 815.296L1112.54 848.356L1054.52 839.451L1059.67 806.424ZM1120.25 815.684L1178.24 824.557L1173.22 857.487L1115.2 848.615L1120.25 815.684ZM1120.64 813.094L1125.69 780.164L1183.68 789.068L1178.63 821.966L1120.64 813.094ZM1186.27 789.457L1244.27 798.329L1239.25 831.259L1181.13 822.452L1186.27 789.457ZM1281.41 555.641L1277.16 582.84L1219.17 573.968L1224.22 541.037L1276.35 549.003C1277.88 549.243 1279.26 550.072 1280.18 551.312C1281.11 552.553 1281.51 554.106 1281.31 555.641H1281.41ZM442.764 421.264L494.896 429.229L489.877 462.16L431.593 453.32L435.738 426.25C435.852 425.477 436.119 424.735 436.521 424.065C436.924 423.396 437.455 422.813 438.084 422.349C438.713 421.886 439.427 421.551 440.186 421.365C440.945 421.179 441.733 421.144 442.505 421.264H442.764ZM389.272 731.464L393.417 704.394L451.41 713.299L446.391 746.197L393.967 738.264C392.41 738.017 391.014 737.162 390.085 735.888C389.156 734.613 388.771 733.022 389.013 731.464H389.272ZM1227.85 865.873L1175.69 857.876L1180.74 824.945L1238.73 833.817L1234.58 860.919C1234.34 862.468 1233.5 863.858 1232.24 864.787C1230.98 865.715 1229.4 866.106 1227.85 865.873Z" fill="white"/>
</g>
<path opacity="0.5" d="M1249.22 765.398L1234.58 860.855C1234.47 861.593 1234.22 862.303 1233.83 862.942C1233.45 863.582 1232.94 864.139 1232.34 864.581C1231.73 865.024 1231.05 865.343 1230.33 865.52C1229.6 865.697 1228.85 865.729 1228.11 865.614L393.773 737.908C393.037 737.793 392.331 737.535 391.695 737.147C391.059 736.76 390.506 736.251 390.067 735.65C389.628 735.048 389.312 734.366 389.137 733.642C388.961 732.919 388.93 732.167 389.046 731.432L390.988 718.674C390.988 718.674 430.201 687.071 454.745 690.827C483.725 695.263 488.938 711.712 514.842 715.598C540.746 719.484 569.111 659.581 592.554 663.142C605.215 665.085 608.453 674.831 614.637 683.768C617.291 687.877 620.811 691.356 624.949 693.962C629.088 696.569 633.746 698.239 638.598 698.857L639.57 699.019C671.302 703.876 714.238 535.436 757.886 542.106C777.314 545.052 784.988 582.225 790.784 623.283C798.135 675.091 802.279 733.375 822.517 736.321C858.718 741.858 871.087 668.323 904.697 673.601C925.841 676.839 933.548 716.019 951.357 747.071C961.88 765.431 975.966 780.973 998.502 784.405C1019 787.643 1032.7 782.786 1043.35 775.307C1064.23 760.703 1073.56 735.771 1099.66 739.689C1115.13 742.052 1120.77 753.968 1126.53 765.204C1131.55 774.918 1136.67 784.308 1148.58 786.122C1162.6 788.291 1174.49 768.215 1187.21 750.504C1197.61 735.868 1208.45 722.722 1221.34 724.6C1234.23 726.478 1242.32 742.441 1246.24 753.742C1247.46 757.565 1248.46 761.457 1249.22 765.398Z" fill="#407BFF"/>
<path opacity="0.5" d="M1269.3 634.227L1234.58 860.887C1234.47 861.626 1234.22 862.335 1233.83 862.975C1233.45 863.614 1232.94 864.171 1232.34 864.614C1231.73 865.056 1231.05 865.375 1230.33 865.552C1229.6 865.73 1228.85 865.762 1228.11 865.647L393.773 737.908C393.037 737.793 392.331 737.535 391.695 737.148C391.059 736.76 390.506 736.251 390.067 735.65C389.628 735.048 389.312 734.366 389.137 733.642C388.961 732.919 388.93 732.167 389.046 731.432L390.988 718.674C425.635 723.984 444.124 698.048 467.373 701.61C490.622 705.172 502.667 721.394 524.426 724.729C546.186 728.064 579.764 677.131 603.563 680.789C607.295 681.332 610.941 682.355 614.41 683.833C623.574 687.654 629.888 693.806 638.372 698.922C645.048 702.97 652.47 705.634 660.196 706.758C688.075 711 743.866 610.104 776.213 615.058C781.813 616.07 786.885 619.001 790.558 623.347C809.662 644.168 814.584 696.235 841.524 700.347C874.195 705.366 891.68 652.23 923.38 657.055C955.081 661.88 964.406 716.537 1001.09 722.139C1037.78 727.74 1077.57 627.492 1115.69 633.32C1153.8 639.149 1164.68 690.665 1197.8 695.717C1234.16 701.286 1269.3 634.227 1269.3 634.227Z" fill="#407BFF"/>
<path d="M1253.11 739.591L1234.52 860.854C1234.41 861.593 1234.15 862.303 1233.77 862.942C1233.38 863.582 1232.87 864.139 1232.27 864.581C1231.67 865.024 1230.99 865.343 1230.26 865.52C1229.54 865.697 1228.78 865.729 1228.04 865.614L393.773 737.908C393.037 737.793 392.331 737.535 391.695 737.147C391.059 736.76 390.506 736.251 390.067 735.65C389.628 735.048 389.312 734.366 389.137 733.642C388.961 732.919 388.93 732.167 389.046 731.432L389.985 725.182C391.183 724.049 410.837 705.495 430.783 708.539C451.41 711.777 451.474 730.169 480.228 734.443C508.981 738.717 517.368 716.084 558.166 722.333C598.965 728.582 598.836 757.109 641.027 763.585C683.218 770.061 691.928 735.835 721.977 740.433C752.025 745.031 749.921 762.484 766.953 765.074C783.985 767.665 793.893 740.984 814.843 744.189C835.793 747.395 851.821 791.302 875.426 794.929C892.004 797.454 921.308 764.621 951.227 747.006C963.855 739.559 976.645 734.832 988.561 736.677C1013.2 740.433 1027.58 759.667 1043.22 775.242C1052.93 784.956 1063.39 793.375 1077.06 795.479C1096.48 798.458 1111.41 780.779 1126.4 765.236C1138.58 752.576 1150.85 741.308 1165.78 743.574C1173.24 744.524 1180.47 746.852 1187.08 750.439C1200.04 757.692 1203.43 767.471 1218.91 769.867C1237.53 772.813 1253.11 739.591 1253.11 739.591Z" fill="#407BFF"/>
<path d="M492.338 408.83L447.524 401.965C446.488 401.807 445.493 401.446 444.597 400.903C443.7 400.36 442.92 399.646 442.3 398.8C441.681 397.955 441.234 396.996 440.986 395.978C440.737 394.959 440.693 393.902 440.854 392.867C441.173 390.772 442.311 388.89 444.017 387.633C445.722 386.376 447.857 385.848 449.952 386.164L494.734 393.028C496.825 393.356 498.702 394.495 499.957 396.199C501.212 397.903 501.744 400.033 501.437 402.127C501.109 404.218 499.97 406.095 498.266 407.35C496.562 408.605 494.432 409.137 492.338 408.83Z" fill="#407BFF"/>
<path d="M517.076 399.796H517.788L562.602 406.66C563.24 406.742 563.855 406.95 564.411 407.273C564.967 407.595 565.453 408.025 565.84 408.538C566.575 409.559 566.888 410.823 566.715 412.068C566.532 413.187 565.962 414.205 565.103 414.945C564.245 415.685 563.153 416.1 562.02 416.115H561.275L516.493 409.251C515.853 409.18 515.234 408.977 514.676 408.654C514.118 408.33 513.635 407.894 513.255 407.373C512.732 406.668 512.416 405.831 512.341 404.956C512.267 404.081 512.438 403.203 512.834 402.42C513.231 401.636 513.838 400.979 514.587 400.521C515.336 400.064 516.198 399.824 517.076 399.828M517.076 396.59C515.033 396.538 513.047 397.273 511.53 398.643C510.014 400.014 509.082 401.915 508.928 403.953C508.774 405.992 509.41 408.011 510.703 409.594C511.997 411.177 513.85 412.202 515.878 412.456L560.66 419.321C561.069 419.353 561.481 419.353 561.89 419.321C563.9 419.31 565.831 418.543 567.301 417.172C568.771 415.802 569.67 413.928 569.821 411.924C569.972 409.92 569.364 407.933 568.116 406.358C566.868 404.782 565.073 403.734 563.088 403.422L518.274 396.59C517.875 396.558 517.475 396.558 517.076 396.59Z" fill="#407BFF"/>
<path d="M585.398 410.254H586.078L630.859 417.119C632.032 417.314 633.09 417.94 633.824 418.875C634.558 419.811 634.916 420.987 634.826 422.172C634.737 423.358 634.207 424.467 633.341 425.281C632.475 426.096 631.336 426.557 630.147 426.574H629.435L584.621 419.709C583.983 419.63 583.367 419.422 582.811 419.1C582.255 418.777 581.769 418.346 581.383 417.831C581.015 417.328 580.752 416.757 580.607 416.151C580.463 415.545 580.44 414.917 580.541 414.302C580.717 413.189 581.283 412.175 582.136 411.44C582.99 410.704 584.077 410.296 585.204 410.287M585.204 407.049C583.16 406.996 581.175 407.731 579.658 409.102C578.141 410.472 577.21 412.373 577.056 414.412C576.902 416.45 577.537 418.47 578.831 420.053C580.125 421.635 581.977 422.66 584.006 422.915L628.82 429.779C629.218 429.812 629.619 429.812 630.018 429.779C632.027 429.768 633.959 429.001 635.428 427.631C636.898 426.26 637.798 424.387 637.949 422.383C638.1 420.379 637.491 418.392 636.243 416.816C634.996 415.241 633.201 414.193 631.216 413.881L586.434 407.049C586.025 407.017 585.613 407.017 585.204 407.049Z" fill="#407BFF"/>
<path d="M1283.09 522.646L1283.64 519.148L1281.05 518.533C1280.99 517.955 1280.85 517.388 1280.63 516.849L1282.64 515.101L1280.56 512.252L1278.27 513.644C1277.82 513.286 1277.33 512.982 1276.81 512.737L1276.97 510.082L1273.47 509.564L1272.86 512.154C1272.29 512.215 1271.74 512.345 1271.21 512.543L1269.43 510.535L1266.58 512.64L1267.97 514.907C1267.61 515.36 1267.31 515.861 1267.09 516.396L1264.44 516.202L1263.89 519.699L1266.48 520.347C1266.54 520.914 1266.68 521.471 1266.9 521.998L1264.89 523.746L1267 526.596L1269.26 525.204C1269.72 525.555 1270.21 525.858 1270.72 526.11L1270.56 528.765L1274.06 529.283L1274.67 526.725C1275.24 526.636 1275.81 526.495 1276.35 526.304L1278.1 528.312L1280.95 526.207L1279.56 523.941C1279.91 523.494 1280.21 523.004 1280.43 522.484L1283.09 522.646ZM1273.15 523.487C1272.35 523.362 1271.6 523.002 1271 522.452C1270.4 521.901 1269.98 521.186 1269.78 520.396C1269.59 519.605 1269.64 518.776 1269.92 518.012C1270.2 517.248 1270.7 516.584 1271.35 516.104C1272.01 515.624 1272.79 515.35 1273.61 515.315C1274.42 515.281 1275.22 515.488 1275.92 515.911C1276.61 516.334 1277.17 516.954 1277.51 517.691C1277.85 518.429 1277.97 519.251 1277.84 520.055C1277.76 520.589 1277.57 521.101 1277.29 521.562C1277.01 522.024 1276.64 522.425 1276.21 522.744C1275.77 523.062 1275.28 523.292 1274.75 523.42C1274.23 523.547 1273.68 523.57 1273.15 523.487Z" fill="#407BFF"/>
<path opacity="0.2" d="M779.473 907.958L769.934 906.499L759.453 974.994L768.991 976.454L779.473 907.958Z" fill="#407BFF"/>
<path d="M777.899 918.25L768.361 916.791L763.429 949.022L772.967 950.482L777.899 918.25Z" fill="#407BFF"/>
<path opacity="0.2" d="M755.421 921.93L745.883 920.47L735.402 988.966L744.94 990.426L755.421 921.93Z" fill="#407BFF"/>
<path d="M743.034 938.514L738.097 970.777L747.635 972.237L752.572 939.973L743.034 938.514Z" fill="#407BFF"/>
<path opacity="0.2" d="M738.189 905.951L728.636 904.504L718.242 973.104L727.795 974.552L738.189 905.951Z" fill="#407BFF"/>
<path d="M731.996 931.295L722.458 929.836L717.521 962.099L727.059 963.559L731.996 931.295Z" fill="#407BFF"/>
<path opacity="0.2" d="M798.856 924.747L789.317 923.287L778.836 991.783L788.374 993.243L798.856 924.747Z" fill="#407BFF"/>
<path d="M797.315 935.039L787.777 933.579L782.84 965.843L792.378 967.302L797.315 935.039Z" fill="#407BFF"/>
<path opacity="0.2" d="M823.385 907.769L813.847 906.31L803.365 974.805L812.903 976.265L823.385 907.769Z" fill="#407BFF"/>
<path d="M822.199 915.495L812.661 914.035L807.724 946.299L817.262 947.758L822.199 915.495Z" fill="#407BFF"/>
<path opacity="0.2" d="M842.148 928.723L832.61 927.264L822.129 995.76L831.667 997.219L842.148 928.723Z" fill="#407BFF"/>
<path d="M841.732 931.316L832.194 929.856L827.257 962.12L836.795 963.579L841.732 931.316Z" fill="#407BFF"/>
<path opacity="0.2" d="M869.038 896.19L859.5 894.73L849.019 963.226L858.557 964.686L869.038 896.19Z" fill="#407BFF"/>
<path d="M868.682 898.787L859.143 897.327L854.211 929.559L863.749 931.018L868.682 898.787Z" fill="#407BFF"/>
<path opacity="0.2" d="M883.895 942.616L874.357 941.156L863.875 1009.65L873.413 1011.11L883.895 942.616Z" fill="#407BFF"/>
<path d="M882.322 952.94L872.783 951.48L867.846 983.744L877.385 985.204L882.322 952.94Z" fill="#407BFF"/>
<path opacity="0.2" d="M904.733 949.896L895.195 948.436L884.714 1016.93L894.252 1018.39L904.733 949.896Z" fill="#407BFF"/>
<path d="M900.782 975.708L891.244 974.248L886.307 1006.51L895.845 1007.97L900.782 975.708Z" fill="#407BFF"/>
<path opacity="0.2" d="M932.795 910.131L923.257 908.672L912.776 977.168L922.314 978.627L932.795 910.131Z" fill="#407BFF"/>
<path d="M928.424 938.547L918.885 937.088L913.953 969.319L923.491 970.779L928.424 938.547Z" fill="#407BFF"/>
<path opacity="0.2" d="M949.598 943.573L940.059 942.113L929.578 1010.61L939.116 1012.07L949.598 943.573Z" fill="#407BFF"/>
<path d="M947.605 956.497L938.067 955.037L933.134 987.269L942.673 988.728L947.605 956.497Z" fill="#407BFF"/>
<path opacity="0.2" d="M973.773 928.975L964.235 927.516L953.754 996.012L963.292 997.471L973.773 928.975Z" fill="#407BFF"/>
<path d="M974.844 939.491L965.291 938.043L960.395 970.356L969.948 971.804L974.844 939.491Z" fill="#407BFF"/>
<path opacity="0.2" d="M999.94 901.484L990.402 900.025L979.921 968.521L989.459 969.98L999.94 901.484Z" fill="#407BFF"/>
<path d="M999.907 901.509L990.369 900.05L985.432 932.313L994.97 933.773L999.907 901.509Z" fill="#407BFF"/>
<path opacity="0.2" d="M1014.76 948.161L1005.22 946.702L994.739 1015.2L1004.28 1016.66L1014.76 948.161Z" fill="#407BFF"/>
<path d="M1013.54 955.92L1004 954.46L999.065 986.723L1008.6 988.183L1013.54 955.92Z" fill="#407BFF"/>
<path opacity="0.2" d="M1031.57 981.571L1022.03 980.111L1011.55 1048.61L1021.08 1050.07L1031.57 981.571Z" fill="#407BFF"/>
<path d="M1030.38 989.296L1020.84 987.837L1015.9 1020.1L1025.44 1021.56L1030.38 989.296Z" fill="#407BFF"/>
<path opacity="0.2" d="M1058.55 948.599L1049.01 947.139L1038.53 1015.64L1048.07 1017.09L1058.55 948.599Z" fill="#407BFF"/>
<path d="M1054.63 974.351L1045.09 972.891L1040.16 1005.15L1049.69 1006.61L1054.63 974.351Z" fill="#407BFF"/>
<path opacity="0.2" d="M1085.94 913.161L1076.4 911.701L1065.92 980.197L1075.46 981.657L1085.94 913.161Z" fill="#407BFF"/>
<path d="M1081.18 944.106L1071.64 942.646L1066.71 974.91L1076.25 976.37L1081.18 944.106Z" fill="#407BFF"/>
<path opacity="0.2" d="M1101.46 955.143L1091.92 953.683L1081.44 1022.18L1090.98 1023.64L1101.46 955.143Z" fill="#407BFF"/>
<path d="M1102.79 965.504L1093.24 964.057L1088.34 996.369L1097.89 997.817L1102.79 965.504Z" fill="#407BFF"/>
<path opacity="0.2" d="M1121.13 969.835L1111.59 968.375L1101.11 1036.87L1110.65 1038.33L1121.13 969.835Z" fill="#407BFF"/>
<path d="M1116.82 998.218L1107.28 996.759L1102.34 1029.02L1111.88 1030.48L1116.82 998.218Z" fill="#407BFF"/>
<path opacity="0.2" d="M1145.86 951.729L1136.32 950.27L1125.84 1018.77L1135.38 1020.22L1145.86 951.729Z" fill="#407BFF"/>
<path d="M1145.86 951.759L1136.32 950.3L1131.38 982.563L1140.92 984.023L1145.86 951.759Z" fill="#407BFF"/>
<path opacity="0.2" d="M1164.04 976.379L1154.5 974.919L1144.02 1043.41L1153.56 1044.87L1164.04 976.379Z" fill="#407BFF"/>
<path d="M1163.23 981.537L1153.69 980.078L1148.76 1012.34L1158.3 1013.8L1163.23 981.537Z" fill="#407BFF"/>
<path opacity="0.2" d="M1186.92 970.418L1177.38 968.958L1166.9 1037.45L1176.44 1038.91L1186.92 970.418Z" fill="#407BFF"/>
<path d="M1186.5 973.01L1176.97 971.55L1172.03 1003.81L1181.57 1005.27L1186.5 973.01Z" fill="#407BFF"/>
<path opacity="0.2" d="M1206.98 982.511L1197.44 981.052L1186.96 1049.55L1196.5 1051.01L1206.98 982.511Z" fill="#407BFF"/>
<path d="M1204.98 1016.04L1195.43 1014.59L1190.53 1046.9L1200.09 1048.35L1204.98 1016.04Z" fill="#407BFF"/>
<path d="M860.66 1077.64L681.034 1050.16L680.182 1055.73L859.808 1083.21L860.66 1077.64Z" fill="#999999" stroke="#263238" stroke-linecap="round" stroke-linejoin="round"/>
<path opacity="0.2" d="M974.832 686.067C974.832 686.067 950.482 699.57 965.992 736.159C981.502 772.749 1075.83 832.911 1073.92 863.477C1073.92 863.477 977.066 803.121 950.159 837.962C950.159 837.962 1023.31 908.906 1030.91 962.269C1038.52 1015.63 1063.29 1039.3 1120.54 1069.74C1177.79 1100.18 1302.26 1260.78 1302.26 1260.78L1283.64 991.055L1102.31 786.413L1012.68 735.317L974.832 686.067Z" fill="black" fill-opacity="0.7"/>
<path d="M1466.81 1166.98L1307.18 1271.82H1306.92C1306.77 1271.81 1306.63 1271.76 1306.51 1271.68C1306.39 1271.59 1306.3 1271.47 1306.24 1271.34C1305.53 1269.46 1235.01 1080.97 1218.01 1066.27C1208.43 1057.62 1201.46 1046.48 1197.87 1034.09C1197.87 1034.09 1197.87 1033.93 1197.87 1033.83C1197.25 1031.76 1196.96 1030.4 1196.89 1030.04C1187.5 1010.94 1173.1 994.76 1155.22 983.219C1143.27 975.978 1130.65 969.906 1117.53 965.086C1097.46 956.959 1076.8 948.572 1062.19 933.062C1059.69 930.411 1057.41 927.564 1055.36 924.546C1032.14 890.547 996.3 853.019 984.352 845.312C972.404 837.606 950.418 838.642 950.223 838.642C950.044 838.661 949.864 838.612 949.72 838.504C949.576 838.396 949.478 838.237 949.446 838.059C949.058 835.096 949.326 832.083 950.233 829.234C951.139 826.386 952.662 823.772 954.692 821.578C957.743 818.011 961.532 815.15 965.798 813.194C970.064 811.237 974.704 810.231 979.398 810.245C997.854 810.245 1023.27 819.959 1036.1 832.166C1048.92 844.373 1078.58 853.343 1081.98 854.379C1086.8 851.529 1098.17 857.617 1102.34 860.24C1097.39 842.593 1099.4 835.793 1100.18 834.077C1089.55 820.315 1034.25 779.581 1004.88 759.149C996.786 753.483 990.699 749.435 988.043 747.849C974.347 739.786 963.014 714.562 965.215 696.947C965.323 694.555 965.959 692.217 967.079 690.1C968.199 687.984 969.774 686.142 971.691 684.708C974.446 682.977 977.672 682.151 980.92 682.344C982.238 682.378 983.551 682.541 984.838 682.83C984.968 682.886 985.088 682.962 985.194 683.056C985.453 683.412 1012.94 716.019 1022.46 721.135C1027.13 723.628 1051.93 736.159 1075.5 747.816L1086.12 753.062C1086.06 742.796 1086.6 732.535 1087.74 722.333C1088.65 718.318 1095.06 712.619 1102.34 709.381C1105.74 707.827 1112.06 705.593 1116.69 708.054C1118.47 709.057 1122.68 711.648 1128.51 715.274L1138.22 721.297C1140.29 718.119 1142.82 715.271 1145.73 712.846C1148.16 711.421 1161.6 708.928 1166.39 710.612C1170.57 712.134 1183.97 720.649 1198.16 729.651L1204.28 733.504C1205.02 732.112 1206.77 729.198 1208.42 728.55C1215.42 725.965 1223.04 725.559 1230.28 727.385C1235.07 729.133 1251.52 741.276 1267.45 753.029C1276.19 759.505 1284.58 765.69 1290.12 769.414C1290.3 769.462 1290.46 769.577 1290.57 769.738C1292.16 770.806 1293.48 771.648 1294.49 772.231C1306.21 778.933 1335.03 930.083 1335.32 931.605C1337.2 941.74 1344.06 952.199 1351.31 963.273C1359.52 974.802 1366.24 987.325 1371.29 1000.54C1380.52 1027.51 1401.54 1066.99 1432.33 1115.23C1435.11 1119.55 1437.99 1123.99 1440.94 1128.54C1449.26 1141.14 1458.14 1154.28 1466.81 1166.98Z" fill="white"/>
<path opacity="0.4" d="M1111.09 877.498C1104.9 882.388 1060.02 877.757 1054.52 892.846C1051.28 901.751 1053.68 915.221 1062.1 932.998C1059.59 930.347 1057.31 927.499 1055.26 924.482C1032.05 890.483 996.203 852.954 984.255 845.248C972.307 837.541 950.418 838.642 950.223 838.642C950.044 838.661 949.864 838.612 949.72 838.504C949.576 838.396 949.478 838.237 949.446 838.059C949.058 835.096 949.326 832.083 950.233 829.234C951.139 826.386 952.662 823.772 954.692 821.578C957.743 818.011 961.532 815.15 965.798 813.194C970.064 811.237 974.704 810.231 979.398 810.245C997.854 810.245 1023.27 819.959 1036.1 832.166C1048.92 844.373 1078.58 853.343 1081.98 854.379C1086.8 851.529 1098.17 857.617 1102.34 860.24C1097.39 842.593 1099.4 835.793 1100.18 834.077C1089.55 820.315 1034.25 779.581 1004.88 759.149C996.786 753.483 990.699 749.435 988.043 747.849C974.347 739.786 963.014 714.562 965.215 696.947C965.323 694.555 965.959 692.217 967.079 690.1C968.199 687.984 969.774 686.142 971.691 684.708C974.446 682.977 977.672 682.151 980.92 682.344C978.693 683.214 976.633 684.463 974.832 686.035C965.831 693.709 987.299 734.217 999.376 745.42C1012 757.109 1068.8 786.122 1089.2 803.413C1100.4 812.9 1115.1 827.277 1115.1 827.277C1106.13 842.56 1117.11 872.706 1111.09 877.498Z" fill="#407BFF"/>
<path d="M1319.61 629.888C1319.61 629.597 1319.61 629.532 1319.61 629.662C1319.64 629.695 1319.65 629.734 1319.65 629.775C1319.65 629.815 1319.64 629.855 1319.61 629.888Z" fill="#407BFF"/>
<path opacity="0.4" d="M1432.33 1115.07C1408.27 1092.18 1372.46 1056.53 1365.76 1040.89C1355.52 1016.93 1348.69 994.811 1335.97 978.686C1323.24 962.56 1297.43 790.72 1290.02 790.234C1282.6 789.748 1299.34 858.232 1300.22 861.729C1299.51 859.56 1290.25 830.385 1281.37 797.131C1272.18 762.582 1262.88 760.703 1262.88 760.703C1250.55 763.164 1250.48 771.939 1244.17 771.81C1237.86 771.68 1216.19 756.3 1216.19 756.3C1195.18 759.344 1116.33 708.572 1116.33 708.572C1098.39 711 1094.18 726.672 1109.5 741.373C1124.82 756.073 1147.71 773.882 1147.71 773.882C1132.94 781.071 1078.74 750.666 1078.74 750.666L1075.5 747.751L1086.12 752.997C1086.06 742.731 1086.6 732.471 1087.74 722.268C1088.65 718.253 1095.06 712.554 1102.34 709.316C1105.74 707.762 1112.06 705.528 1116.69 707.989C1118.47 708.993 1122.68 711.583 1128.51 715.21L1138.22 721.232C1140.29 718.055 1142.82 715.206 1145.73 712.781C1148.16 711.356 1161.6 708.863 1166.39 710.547C1170.57 712.069 1183.97 720.585 1198.16 729.586L1204.28 733.44C1205.02 732.047 1206.77 729.133 1208.42 728.485C1215.42 725.9 1223.04 725.494 1230.28 727.32C1235.07 729.068 1251.52 741.211 1267.45 752.965C1276.19 759.441 1284.58 765.625 1290.12 769.349C1290.3 769.397 1290.46 769.512 1290.57 769.673C1292.16 770.741 1293.48 771.583 1294.49 772.166C1306.21 778.869 1335.03 930.019 1335.32 931.54C1337.2 941.675 1344.06 952.134 1351.31 963.208C1359.53 974.757 1366.24 987.302 1371.29 1000.54C1380.52 1027.35 1401.54 1066.82 1432.33 1115.07Z" fill="#407BFF"/>
<path d="M1306.92 1271.17C1306.92 1271.17 1235.69 1080.78 1218.49 1065.82C1207.91 1056.25 1200.57 1043.62 1197.51 1029.68C1188.05 1010.4 1173.49 994.072 1155.42 982.474C1124.69 962.237 1078.22 956.991 1055.75 924.19C1033.28 891.389 997.272 852.954 984.514 844.73C971.756 836.505 950.029 837.995 950.029 837.995C947.795 825.237 962.01 811.022 979.171 811.022C996.333 811.022 1021.88 819.991 1035.38 832.749C1048.89 845.507 1081.85 855.221 1081.85 855.221C1087.09 851.465 1103.32 861.891 1103.32 861.891C1096.84 839.97 1100.76 834.044 1100.76 834.044C1088.03 816.818 1000.9 754.81 988.173 747.298C975.447 739.786 963.435 715.08 965.669 697.077C965.724 694.841 966.296 692.648 967.342 690.67C968.387 688.693 969.876 686.984 971.693 685.679C973.509 684.374 975.604 683.508 977.811 683.148C980.019 682.789 982.28 682.946 984.417 683.607C984.417 683.607 1012.13 716.57 1021.88 721.815C1031.63 727.061 1108.08 765.302 1119.31 769.77C1122.43 771.101 1125.83 771.66 1129.21 771.401C1132.59 771.141 1135.86 770.071 1138.74 768.281" stroke="#263238" stroke-linecap="round" stroke-linejoin="round"/>
<path d="M1086.83 754.227C1086.83 754.227 1086.83 729.295 1088.45 722.527C1090.07 715.76 1108.11 704.103 1116.33 708.572C1124.56 713.04 1185.3 752.997 1201.14 754.778" stroke="#263238" stroke-linecap="round" stroke-linejoin="round"/>
<path d="M1138.45 722.074C1140.6 718.788 1143.19 715.813 1146.15 713.234C1148.39 711.907 1161.7 709.446 1166.2 711.065C1175.2 714.303 1228.24 750.892 1237.21 753.159" stroke="#263238" stroke-linecap="round" stroke-linejoin="round"/>
<path d="M1204.54 734.443C1204.54 734.443 1206.83 729.845 1208.68 729.101C1215.51 726.566 1222.96 726.171 1230.02 727.967C1238.28 730.979 1283.61 766.823 1294.1 772.749C1304.59 778.674 1330.85 911.4 1334.57 931.637C1338.3 951.875 1360.83 972.112 1370.55 1000.61C1380.26 1029.1 1403.54 1072.56 1440.26 1128.77C1446.74 1138.48 1453.47 1148.75 1460.24 1158.65" stroke="#263238" stroke-linecap="round" stroke-linejoin="round"/>
<path d="M1133.04 807.039C1133.04 807.039 1136.28 791.853 1145.41 785.118C1154.54 778.383 1166.78 789.068 1175.75 790.169" stroke="#263238" stroke-linecap="round" stroke-linejoin="round"/>
<path d="M1194.3 782.884C1194.3 782.884 1199.36 765.431 1208.36 761.513C1217.36 757.595 1231.22 769.381 1237.21 769.932" stroke="#263238" stroke-linecap="round" stroke-linejoin="round"/>
<path d="M1253.33 767.115C1253.33 767.115 1260.07 760.639 1262.88 760.639C1265.7 760.639 1277.49 772.975 1280.05 773.817C1282.6 774.659 1285.65 770.029 1290.02 769.964" stroke="#263238" stroke-linecap="round" stroke-linejoin="round"/>
<path d="M1232.84 751.216C1237.76 750.851 1242.67 752.065 1246.86 754.681" stroke="#263238" stroke-linecap="round" stroke-linejoin="round"/>
<path d="M1100.92 834.012C1100.92 834.012 1096.45 822.484 1098.69 816.591" stroke="#263238" stroke-linecap="round" stroke-linejoin="round"/>
<path d="M1109.69 749.435C1109.69 749.435 1115.04 755.684 1115.33 760.703C1115.62 765.722 1128.28 771.81 1128.28 771.81" stroke="#263238" stroke-linecap="round" stroke-linejoin="round"/>
<path d="M1195.4 753.256C1195.4 753.256 1202.76 750.633 1206.67 753.256" stroke="#263238" stroke-linecap="round" stroke-linejoin="round"/>
<path d="M1100.92 849.198C1100.67 845.494 1101.33 841.785 1102.85 838.398C1104.37 835.01 1106.7 832.047 1109.63 829.77" stroke="#263238" stroke-linecap="round" stroke-linejoin="round"/>
<path d="M1103.54 861.858C1103.54 861.858 1095.19 869.047 1095.19 873.548" stroke="#263238" stroke-linecap="round" stroke-linejoin="round"/>
<path d="M1065.08 849.198C1074.98 852.889 1083.21 868.302 1089.2 870.925" stroke="#263238" stroke-linecap="round" stroke-linejoin="round"/>
<path d="M1185.11 800.11C1191.1 808.723 1204.54 871.346 1218.07 891.162" stroke="#263238" stroke-linecap="round" stroke-linejoin="round"/>
<path d="M1235.36 782.43C1236.49 783.175 1244.36 807.525 1244.36 807.525" stroke="#263238" stroke-linecap="round" stroke-linejoin="round"/>
<path d="M1335.97 936.721C1337.94 949.181 1341.53 961.329 1346.65 972.857" stroke="#263238" stroke-linecap="round" stroke-linejoin="round"/>
<path d="M1198.51 1033.93C1197.51 1029.81 1193.17 1002.84 1187.83 993.839" stroke="#263238" stroke-linecap="round" stroke-linejoin="round"/>
<path opacity="0.2" d="M291.064 1454.8C291.064 1454.8 396.428 1313.14 475.889 1287.2C555.349 1261.27 559.267 1226.07 556.029 1160.4C552.791 1094.74 555.187 1028.55 533.363 1020.65C511.539 1012.75 559.526 927.007 536.601 893.04L386.261 1129.22L291.064 1454.8Z" fill="black" fill-opacity="0.7"/>
<path d="M265.516 1494.27L263.929 1493.75L266.196 1495.02L265.516 1494.27ZM521.642 1059.7C508.69 1053.64 482.98 1025.25 479.774 1021.69C495.964 994.422 511.96 968.129 517.497 961.815C528.992 948.863 543.013 911.076 537.314 892.814C532.1 876.041 515.036 878.728 512.705 879.181H512.446C512.358 879.195 512.275 879.228 512.202 879.279C512.129 879.329 512.068 879.395 512.025 879.473C511.669 880.088 476.925 938.664 466.142 952.684C460.994 959.354 449.143 974.541 437 989.759L433.406 989.209C425.875 988.036 418.192 988.256 410.74 989.856L409.995 990.115C406.141 991.778 402.427 993.749 398.889 996.009L396.331 994.94C391.215 992.803 380.627 988.691 375.608 988.464C369.488 988.14 347.923 998.178 335.036 1006.27C326.151 1003.57 316.892 1002.32 307.61 1002.55C297.734 1002.97 277.594 1011.16 261.404 1017.74C254.215 1020.65 247.998 1023.18 244.372 1024.21L241.134 1025.18C231.42 1028.06 226.174 1029.68 219.439 1043.15C212.445 1057.14 204.901 1109.31 201.274 1134.37L200.788 1137.77C199.396 1147.48 199.623 1164.51 199.849 1182.68C200.205 1207.94 200.562 1234.03 196.806 1244.2C191.732 1257.01 185.028 1269.11 176.859 1280.21C175.791 1281.73 174.82 1283.15 173.913 1284.51C168.858 1292.4 164.821 1300.9 161.9 1309.8C159.18 1316.99 155.78 1324.89 152.477 1332.11C146.39 1345.49 140.723 1356.53 140.723 1356.53C140.723 1356.53 255.51 1483.17 265.516 1494.27C266.055 1494.48 266.607 1494.65 267.167 1494.79C267.556 1494.14 288.732 1457.94 311.172 1422.23C330.6 1391.4 350.772 1360.93 359.418 1353.94C371.273 1343.77 379.895 1330.35 384.221 1315.34C388.884 1300.35 418.641 1281.86 447.427 1263.99C479.256 1244.23 512.187 1223.8 513.288 1206.9C513.903 1198.16 515.91 1183.68 518.242 1166.88C524.556 1121.35 532.392 1064.65 521.642 1059.7ZM467.114 1132.49L452.964 1146.25C450.956 1134.92 437.195 1119.86 435.025 1117.56C436.113 1112.11 436.816 1106.6 437.13 1101.05C437.648 1094.74 438.198 1088.1 439.753 1087.03C441.307 1085.96 448.463 1074.08 460.12 1054.65C461.091 1068.35 473.072 1083.43 474.691 1085.6L467.114 1132.49Z" fill="white"/>
<path opacity="0.4" d="M299.094 1090.43C294.917 1127.73 258.36 1220.27 258.36 1220.27L251.884 1127.05C251.884 1127.05 223.422 1253.56 215.618 1258.12C207.815 1262.69 194.118 1286.88 186.476 1306.08C181.328 1319.03 163.81 1327.84 152.769 1332.27C156.007 1325.05 159.471 1317.15 162.191 1309.97C165.113 1301.06 169.149 1292.57 174.204 1284.68C175.111 1283.32 176.082 1281.89 177.151 1280.37C185.319 1269.27 192.023 1257.17 197.097 1244.36C200.853 1234.13 200.335 1208.03 200.141 1182.84C199.914 1164.68 199.687 1147.51 201.08 1137.93L201.565 1134.53C205.192 1109.47 212.737 1057.3 219.731 1043.32C226.466 1029.85 231.776 1028.23 241.425 1025.34L244.663 1024.37C248.29 1023.24 254.377 1020.71 261.695 1017.9C277.885 1011.42 298.025 1003.13 307.901 1002.71C317.133 1002.52 326.336 1003.8 335.165 1006.5C348.117 998.372 369.618 988.367 375.737 988.691C380.756 988.917 391.345 993.03 396.461 995.167C374.96 1006.24 338.792 1032.92 338.792 1032.92C297.896 1041.79 299.094 1090.43 299.094 1090.43Z" fill="#407BFF"/>
<path opacity="0.4" d="M371.56 1040.89C382.146 1033.56 393.117 1026.8 404.426 1020.65C414.917 1015.73 418.285 996.106 410.902 990.569C410.626 990.364 410.304 990.23 409.963 990.18L410.708 989.921C418.16 988.321 425.842 988.101 433.374 989.274C419.807 1009.64 409.186 1025.25 406.369 1028.62C397.043 1039.95 371.56 1040.89 371.56 1040.89Z" fill="#407BFF"/>
<path opacity="0.4" d="M425.084 1168.69L430.039 1170.83C427.027 1182.84 425.084 1168.69 425.084 1168.69Z" fill="#407BFF"/>
<path opacity="0.4" d="M521.642 1059.7C508.69 1053.64 482.98 1025.25 479.774 1021.69C495.964 994.422 511.96 968.129 517.497 961.815C528.992 948.863 543.013 911.076 537.314 892.814C532.1 876.041 515.036 878.728 512.705 879.181V879.894C512.705 879.894 531.161 882.193 531.129 908.874C531.097 935.555 483.174 988.432 483.174 988.432C483.174 988.432 433.892 1080.88 430.654 1079.48C427.416 1078.09 420.195 1141.27 420.195 1141.27C420.195 1141.27 433.924 1152.95 430.654 1168.69C430.481 1169.47 430.319 1170.18 430.168 1170.83L451.28 1179.93C451.28 1179.93 472.457 1165.06 483.207 1186.92C493.957 1208.78 379.85 1286.88 370.88 1298.44C370.88 1298.44 369.618 1341.99 352.974 1348.4C342.192 1352.54 323.185 1393.73 311.172 1422.26C330.6 1391.43 350.772 1360.96 359.418 1353.97C371.273 1343.8 379.895 1330.38 384.221 1315.37C388.884 1300.38 418.641 1281.89 447.427 1264.02C479.256 1244.27 512.187 1223.83 513.288 1206.93C513.903 1198.19 515.911 1183.72 518.242 1166.91C524.556 1121.35 532.392 1064.65 521.642 1059.7ZM467.114 1132.49L452.964 1146.25C450.956 1134.92 437.195 1119.86 435.025 1117.56C436.113 1112.11 436.816 1106.6 437.13 1101.05C437.648 1094.74 438.198 1088.1 439.753 1087.03C441.307 1085.96 448.463 1074.08 460.12 1054.65C461.091 1068.35 473.072 1083.43 474.691 1085.6L467.114 1132.49Z" fill="#407BFF"/>
<path d="M383.573 1041.73C392.397 1039.83 400.417 1035.25 406.531 1028.62C416.245 1017.7 455.748 967.384 466.693 953.17C477.637 938.955 512.608 879.894 512.608 879.894C512.608 879.894 531.194 875.522 536.666 893.04C542.138 910.558 529.024 947.697 516.979 961.362C504.934 975.026 443.703 1083.3 439.267 1086.58C434.831 1089.85 438.198 1120.51 429.553 1127.05" stroke="#263238" stroke-linecap="round" stroke-linejoin="round"/>
<path d="M434.248 1117.85C434.248 1117.85 451.377 1135.79 452.478 1147.81L467.761 1132.85L475.435 1085.47C475.435 1085.47 460.314 1067.28 460.767 1052.32" stroke="#263238" stroke-linecap="round" stroke-linejoin="round"/>
<path d="M478.933 1021.78C478.933 1021.78 507.136 1053.77 521.35 1060.35C535.565 1066.92 514.874 1175.17 512.608 1206.87C510.341 1238.57 393.417 1283.35 383.573 1315.11C379.31 1330.01 370.751 1343.32 358.965 1353.39C339.99 1368.77 266.552 1494.47 266.552 1494.47" stroke="#263238" stroke-linecap="round" stroke-linejoin="round"/>
<path d="M437.421 990.569C437.421 990.569 420.746 987.493 410.902 990.569C401.059 993.645 359.418 1023.21 349.704 1028.62C339.99 1034.02 325.646 1035.09 322.375 1041.73" stroke="#263238" stroke-linecap="round" stroke-linejoin="round"/>
<path d="M398.921 996.85C398.921 996.85 382.084 989.533 375.608 989.209C369.132 988.885 342.807 1001.29 330.794 1010.03C321.557 1016.8 311.183 1021.87 300.162 1024.99" stroke="#263238" stroke-linecap="round" stroke-linejoin="round"/>
<path d="M335.068 1007.02C326.239 1004.26 317.02 1002.96 307.772 1003.16C293.525 1003.78 256.352 1021.26 244.696 1024.92C233.039 1028.58 227.567 1028.91 220.281 1043.51C212.996 1058.11 204.965 1115.3 201.695 1137.9C198.425 1160.5 204.253 1226.65 197.68 1244.52C191.107 1262.4 180.972 1275.77 174.852 1285.06C162.386 1303.59 163.778 1317.44 141.08 1356.69" stroke="#263238" stroke-linecap="round" stroke-linejoin="round"/>
<path d="M308.678 1046.65C294.464 1059.25 297.086 1083.31 298.964 1090.43C300.843 1097.55 292.132 1126.05 289.25 1141.27" stroke="#263238" stroke-linecap="round" stroke-linejoin="round"/>
<path d="M398.921 1058.83C373.017 1059.38 364.987 1076.86 363.303 1088.36" stroke="#263238" stroke-linecap="round" stroke-linejoin="round"/>
<path d="M289.542 1032.92C281.868 1032.37 262.181 1044.42 258.36 1064.1" stroke="#263238" stroke-linecap="round" stroke-linejoin="round"/>
<path d="M475.435 1085.47C475.435 1085.47 479.256 1074.56 483.077 1073.46" stroke="#263238" stroke-linecap="round" stroke-linejoin="round"/>
<path d="M467.761 1132.85C465.875 1139.26 463.538 1145.54 460.767 1151.63C457.529 1158.1 460.767 1168.43 460.767 1168.43" stroke="#263238" stroke-linecap="round" stroke-linejoin="round"/>
<path d="M452.478 1147.81C451.928 1158.75 439.882 1170.47 437.421 1168.43" stroke="#263238" stroke-linecap="round" stroke-linejoin="round"/>
<path d="M349.51 1129.22C349.121 1141.27 327.265 1229.27 327.265 1229.27" stroke="#263238" stroke-linecap="round" stroke-linejoin="round"/>
</svg>
